<svg width="202" height="181" viewBox="0 0 202 181" fill="none" xmlns="http://www.w3.org/2000/svg">
<path d="M26.3443 45.4407C37.891 25.6286 56.6285 11.0283 78.6621 4.67467C100.696 -1.67894 124.33 0.70289 144.653 11.3251C164.976 21.9472 180.423 39.9927 187.785 61.7103C195.146 83.4278 193.855 107.147 184.18 127.937C174.505 148.728 157.19 164.99 135.834 173.343C114.479 181.697 90.7253 181.5 69.5116 172.792C48.2978 164.085 31.2556 147.537 21.9275 126.588C12.5993 105.64 11.7028 81.9029 19.4243 60.3107" fill="#F4F8F7"/>
<path d="M26.3467 45.5922H26.4347L26.4837 45.5132C29.5735 40.3665 33.1273 35.513 37.1007 31.0132C48.8848 17.8512 64.2907 8.459 81.3887 4.0132C82.6553 3.70854 83.9347 3.40288 85.2267 3.09621C86.5177 2.79621 87.8507 2.62821 89.1787 2.38521C91.8307 1.85221 94.5787 1.69321 97.3537 1.38521C103.104 1.05235 108.872 1.21024 114.595 1.8572C127.041 3.36077 139.026 7.49091 149.757 13.9742C151.151 14.8332 152.574 15.6652 153.966 16.5572L157.966 19.5492C160.671 21.5741 163.245 23.7696 165.671 26.1222C166.943 27.2715 168.139 28.5024 169.251 29.8072L172.74 33.6512L175.879 37.8452C176.976 39.2254 177.979 40.6776 178.882 42.1922C179.8 43.7042 180.722 45.2225 181.648 46.7472L182.348 47.8932L182.931 49.1002L184.099 51.5252C184.847 53.1582 185.73 54.7422 186.38 56.4332C187.002 58.1352 187.626 59.8436 188.252 61.5582C188.552 62.4192 188.902 63.2672 189.173 64.1412L189.858 66.8072L191.235 72.1692C191.575 73.9892 191.811 75.8352 192.106 77.6692C192.449 79.5082 192.667 81.3685 192.758 83.2372C193.075 87.0009 193.126 90.7823 192.912 94.5532C192.782 96.4532 192.789 98.3612 192.551 100.253C192.261 102.142 191.972 104.036 191.682 105.936C191.521 106.883 191.43 107.845 191.209 108.782L190.487 111.582C189.993 113.449 189.548 115.337 189.014 117.203C188.347 119.027 187.677 120.855 187.005 122.688C186.656 123.598 186.362 124.532 185.97 125.428L184.693 128.075C183.828 129.828 183.036 131.614 182.116 133.326C181.105 134.99 180.097 136.649 179.091 138.303C178.569 139.116 178.131 139.987 177.539 140.751L175.807 143.069C174.632 144.593 173.551 146.191 172.307 147.647C169.683 150.436 167.301 153.44 164.377 155.871C162.958 157.124 161.616 158.462 160.145 159.635L155.635 163.009C154.873 163.553 154.164 164.169 153.363 164.649L150.976 166.101C149.382 167.057 147.814 168.049 146.213 168.968L141.238 171.368L138.765 172.561C137.917 172.902 137.052 173.196 136.201 173.517C134.489 174.144 132.786 174.768 131.09 175.389C129.38 175.972 127.606 176.325 125.879 176.802L123.279 177.471C122.424 177.722 121.55 177.905 120.666 178.018C118.905 178.285 117.153 178.552 115.409 178.818C114.537 178.941 113.67 179.107 112.796 179.194L110.17 179.328L104.95 179.594C104.086 179.653 103.218 179.645 102.356 179.571L99.7757 179.442L94.6507 179.175L89.6267 178.411L87.1327 178.033L85.8907 177.843L84.6767 177.531L79.8467 176.302L77.4467 175.692L75.1347 174.86C63.9301 171.035 53.595 165.026 44.7268 157.182C35.8587 149.338 28.6334 139.814 23.4687 129.16L21.7817 125.674C21.2457 124.514 20.8817 123.298 20.4227 122.13C19.99 120.953 19.5613 119.786 19.1367 118.63C18.9267 118.052 18.7183 117.477 18.5117 116.905C18.359 116.316 18.2073 115.729 18.0567 115.145C17.4567 112.812 16.87 110.528 16.2967 108.294C15.9447 106.014 15.6003 103.785 15.2637 101.608C14.9424 99.4838 14.7617 97.3405 14.7227 95.1922C14.6487 93.0992 14.4227 91.0652 14.4827 89.0822C14.5264 85.344 14.8057 81.6123 15.3187 77.9092C16.1447 71.9316 17.5702 66.0524 19.5737 60.3602L19.6037 60.2752L19.5467 60.2122" fill="#F4F8F7"/>
<path d="M19.3004 60.4086L19.2754 60.2576C15.9372 69.5096 14.1488 79.2491 13.9824 89.0835C13.9124 91.0775 14.1314 93.1245 14.1944 95.2295C14.227 97.3903 14.4014 99.5466 14.7164 101.685C15.0497 103.875 15.3877 106.12 15.7304 108.418C16.3017 110.668 16.8837 112.968 17.4764 115.318C17.6271 115.905 17.7784 116.496 17.9304 117.09L18.5524 118.829C18.9764 119.992 19.4044 121.168 19.8364 122.356C20.2904 123.533 20.6594 124.756 21.1944 125.93C21.7511 127.091 22.3141 128.263 22.8834 129.446C28.061 140.203 35.3233 149.824 44.249 157.752C53.1746 165.68 63.5857 171.757 74.8784 175.63L77.2114 176.473L79.6254 177.096L84.4954 178.352L85.7194 178.667L86.9734 178.861L89.4904 179.248L94.5614 180.024L99.7344 180.3L102.334 180.434C103.205 180.506 104.08 180.515 104.951 180.46C106.701 180.372 108.458 180.284 110.222 180.198L112.874 180.064C113.755 179.976 114.631 179.811 115.514 179.686L120.821 178.88C121.715 178.767 122.598 178.583 123.462 178.331L126.088 177.657C127.834 177.176 129.625 176.821 131.352 176.233L136.516 174.346C137.378 174.023 138.252 173.728 139.107 173.383L141.607 172.183L146.634 169.763C148.251 168.837 149.834 167.836 151.446 166.87L153.858 165.406C154.667 164.92 155.385 164.299 156.158 163.752L160.716 160.347C162.201 159.161 163.559 157.811 164.992 156.547C167.945 154.09 170.354 151.062 173.004 148.241C174.26 146.771 175.353 145.16 176.54 143.62L178.292 141.279C178.892 140.506 179.331 139.627 179.86 138.805L182.915 133.777C183.845 132.049 184.646 130.243 185.515 128.477L186.804 125.802C187.204 124.902 187.504 123.954 187.851 123.034C188.527 121.182 189.203 119.335 189.878 117.492C190.419 115.606 190.869 113.701 191.367 111.815L192.094 108.982C192.318 108.035 192.409 107.064 192.572 106.108C192.865 104.188 193.157 102.274 193.448 100.366C193.688 98.4525 193.683 96.5185 193.811 94.6055C194.026 90.7965 193.973 86.9771 193.652 83.1755C193.559 81.2884 193.338 79.4097 192.99 77.5525C192.69 75.6925 192.452 73.8285 192.107 71.9935C191.641 70.1808 191.176 68.3752 190.713 66.5765L190.019 63.8835C189.744 63.0015 189.395 62.1436 189.087 61.2756C188.453 59.5422 187.82 57.8175 187.187 56.1015C186.53 54.3945 185.639 52.7946 184.88 51.1456L183.699 48.6976L183.107 47.4775L182.407 46.3235C181.474 44.7855 180.541 43.2522 179.607 41.7236C178.691 40.1989 177.675 38.7373 176.563 37.3486C175.5 35.9319 174.442 34.5215 173.389 33.1175L169.861 29.2425C168.738 27.9268 167.53 26.6858 166.244 25.5275C163.793 23.1557 161.192 20.9432 158.458 18.9035L154.425 15.8835C153.018 14.9835 151.582 14.1466 150.174 13.2836C139.34 6.75909 127.241 2.61493 114.681 1.12651C108.911 0.485362 103.096 0.339832 97.3004 0.691513C94.5004 1.00851 91.7354 1.17553 89.0644 1.71953C87.7274 1.96753 86.3864 2.13653 85.0844 2.44853C83.7824 2.76053 82.4974 3.07353 81.2204 3.38353C64.0278 7.90456 48.5604 17.4187 36.7714 30.7245C32.806 35.2662 29.2708 40.1663 26.2114 45.3616L26.3464 45.2845" fill="#F4F8F7"/>
<path d="M181.48 123.556C181.697 124.008 181.946 124.516 182.299 125.169C183.159 126.7 184.105 128.182 185.132 129.607C186.726 131.928 186.665 131.59 187.303 132.629C188.653 134.966 189.58 137.523 190.042 140.183C190.453 141.791 190.706 143.435 190.798 145.093C190.998 149.787 189.574 158.321 190.798 159.619C191.403 160.26 192.71 160.296 195.33 160.374C198.406 160.461 199.948 160.508 200.617 159.713C201.357 158.832 200.909 150.896 199.39 145.864C199.39 145.864 199.04 144.707 197.218 138.483C196.218 135.056 195.64 133.089 195.046 130.362C194.483 127.777 194.067 125.862 193.838 124.362" stroke="#0A4B98" stroke-linecap="round" stroke-linejoin="round"/>
<path d="M88.4297 110.065C88.5163 109.93 88.6152 109.804 88.7249 109.687C89.9569 108.381 91.4598 108.387 94.6738 107.893C99.7738 107.11 99.2177 106.599 102.417 106.382C104.721 106.182 107.042 106.309 109.31 106.76C112.404 107.208 115.331 108.443 117.81 110.348C119.875 112.06 120.166 113.307 122.059 113.748C124.078 114.216 125.773 113.264 126.403 114.126C126.982 114.917 125.841 116.133 126.497 116.959C126.863 117.261 127.315 117.442 127.789 117.476C128.262 117.51 128.735 117.395 129.141 117.148C129.735 116.829 129.786 116.365 130.463 115.26C131.014 114.384 131.646 113.562 132.352 112.805C133.352 111.762 133.886 111.743 135.562 110.633C137.462 109.374 137.505 108.914 139.055 107.8C140.755 106.576 140.991 106.915 144.055 105.345C148.973 102.827 151.514 101.473 151.514 101.473C151.993 101.182 152.528 100.991 153.084 100.914C153.252 100.894 153.423 100.891 153.592 100.906C154.357 101.01 155.075 101.332 155.66 101.835C156.246 102.338 156.674 102.999 156.892 103.739C157.092 104.447 156.821 104.424 156.703 106.666C156.66 107.449 156.703 107.311 156.703 110.254C156.616 111.073 156.647 111.9 156.797 112.709C157.001 113.326 157.346 113.886 157.805 114.345C158.264 114.804 158.824 115.149 159.441 115.353C160.57 115.653 161.241 115.117 161.802 115.636C162.243 116.045 162.121 116.655 162.18 117.43C162.31 119.157 163.187 119.759 164.068 121.585C164.493 122.462 164.355 122.466 165.296 126.495C166.433 131.37 166.59 131.195 166.713 132.633C166.906 134.53 166.778 136.445 166.335 138.299C165.871 140.168 165.387 140.612 164.73 143.399C164.48 144.394 164.291 145.403 164.164 146.421C163.971 148.011 164.097 152.307 163.881 153.944C163.581 155.728 163.455 157.536 163.503 159.344C164.303 161.63 171.478 162.33 172.946 159.911C173.371 159.211 173.064 155.911 172.852 153.569C172.742 152.349 172.777 146.869 172.852 143.78C173.04 139.936 173.545 136.115 174.363 132.354C175.963 123.741 176.892 118.863 178.234 118.854C178.651 118.854 179.142 119.605 180.123 121.12C180.623 121.894 181.07 122.701 181.46 123.536" stroke="#0A4B98" stroke-linecap="round" stroke-linejoin="round"/>
<path d="M86.8867 114.59C87.0157 113.996 87.1819 113.347 87.4019 112.615C87.6281 111.731 87.9692 110.88 88.4167 110.085" stroke="#0A4B98" stroke-linecap="round" stroke-linejoin="round"/>
<path d="M86.2773 118.851C86.4543 117.478 86.5373 116.329 86.8293 114.885" stroke="#0A4B98" stroke-linecap="round" stroke-linejoin="round"/>
<path d="M84.9922 124.595C85.1652 124.025 85.346 123.533 85.592 122.529C85.631 122.383 85.6671 122.229 85.7061 122.057C85.9384 121.066 86.1211 120.065 86.2532 119.057" stroke="#0A4B98" stroke-linecap="round" stroke-linejoin="round"/>
<path d="M82.9531 134.581C83.4449 133.607 83.7987 132.57 84.0042 131.5C84.095 131.051 84.1617 130.598 84.2041 130.143C84.2406 128.889 84.3616 127.638 84.5662 126.401C84.6674 125.792 84.8067 125.191 84.9832 124.601" stroke="#0A4B98" stroke-linecap="round" stroke-linejoin="round"/>
<path d="M71.2503 135.674C71.4363 136.148 71.5027 136.66 71.4434 137.165C71.3774 137.806 71.2233 137.897 70.8773 139.526C70.6063 140.793 70.4913 141.714 70.4053 142.359C70.3773 142.552 70.0743 144.373 69.4613 148.025C69.0833 150.87 68.458 153.677 67.5924 156.413C67.2189 157.213 67.0879 158.104 67.2154 158.978C67.6084 160.363 69.4452 160.331 70.5672 160.646C71.6727 160.984 72.8138 161.193 73.9674 161.268C76.1291 161.264 78.2869 161.087 80.4202 160.737C81.6282 160.587 82.1433 160.351 82.3363 159.128C82.7773 156.342 81.9944 153.187 81.9234 150.386C81.8294 146.686 82.1554 146.904 82.0184 142.737C81.8698 141.145 81.8393 139.545 81.9273 137.949C81.9473 137.764 81.9784 137.567 82.0184 137.355C82.1871 136.39 82.5012 135.456 82.9503 134.585" stroke="#0A4B98" stroke-linecap="round" stroke-linejoin="round"/>
<path d="M68.707 127.392C68.7645 128.212 68.8828 129.027 69.061 129.831C69.2774 130.818 69.5677 131.787 69.9299 132.731C70.4489 134.1 70.9129 134.86 71.1929 135.531" stroke="#0A4B98" stroke-linecap="round" stroke-linejoin="round"/>
<path d="M68.8009 122.529C69.0409 122.856 68.8519 123.343 68.7179 123.816L68.706 123.851C68.5407 125.01 68.5407 126.186 68.706 127.345" stroke="#0A4B98" stroke-linecap="round" stroke-linejoin="round"/>
<path d="M39.0273 108.322C40.5472 109.625 42.1662 110.808 43.8701 111.859C45.4201 112.886 47.1083 113.917 49.9133 115.447C50.0353 115.514 50.1614 115.581 50.2874 115.647C54.4964 117.937 59.4813 120.632 63.1763 121.804C63.7641 121.996 64.3632 122.151 64.9702 122.268C65.5317 122.384 66.1064 122.422 66.6782 122.382C66.7922 122.37 66.9022 122.354 67.0042 122.335C67.235 122.285 67.469 122.25 67.7043 122.229C67.8967 122.187 68.0963 122.191 68.2866 122.242C68.4769 122.293 68.6524 122.388 68.7983 122.52" stroke="#0A4B98" stroke-linecap="round" stroke-linejoin="round"/>
<path d="M38.3164 107.606C38.5364 107.85 38.7684 108.082 39.0164 108.314" stroke="#0A4B98" stroke-linecap="round" stroke-linejoin="round"/>
<path d="M37.9609 107.189C38.0129 107.256 38.067 107.323 38.127 107.389" stroke="#0A4B98" stroke-linecap="round" stroke-linejoin="round"/>
<path d="M37.6289 106.764C37.6802 106.838 37.7353 106.911 37.7939 106.98" stroke="#0A4B98" stroke-linecap="round" stroke-linejoin="round"/>
<path d="M34.3242 98.6123C34.6662 99.7123 34.7804 100.457 34.9934 101.283C35.488 102.983 36.2191 104.604 37.1653 106.099C37.2523 106.237 37.3423 106.37 37.4363 106.504" stroke="#0A4B98" stroke-linecap="round" stroke-linejoin="round"/>
<path d="M32.9907 93.5684C32.9271 94.1908 32.9656 94.8194 33.1047 95.4294C33.376 96.233 33.691 97.0212 34.0486 97.7904C34.1556 98.0904 34.2486 98.3534 34.3206 98.6044" stroke="#0A4B98" stroke-linecap="round" stroke-linejoin="round"/>
<path d="M32.207 90.208C32.4543 90.5376 32.6614 90.8954 32.824 91.274C33.0759 92.0046 33.1356 92.7877 32.9971 93.548" stroke="#0A4B98" stroke-linecap="round" stroke-linejoin="round"/>
<path d="M30.543 87.9814C30.858 88.3814 31.2429 88.8544 31.6919 89.4814L32.1838 90.1814" stroke="#0A4B98" stroke-linecap="round" stroke-linejoin="round"/>
<path d="M30.1641 87.4766C30.2351 87.5766 30.3101 87.6766 30.3921 87.7836" stroke="#0A4B98" stroke-linecap="round" stroke-linejoin="round"/>
<path d="M47.6172 42.8248C46.1162 42.3016 44.5844 41.8718 43.0303 41.5378L42.9634 41.5258C42.8024 41.4908 42.6333 41.4508 42.4563 41.4158C39.7453 40.8488 37.7863 40.5858 37.0733 39.1498C36.7991 38.4089 36.4841 37.6838 36.1294 36.9778C35.5944 35.9778 35.3184 35.4708 34.8074 35.1838C33.9384 34.6918 33.4534 35.3098 32.0694 35.0898C30.5694 34.8498 30.4284 34.0158 29.0474 33.7678C28.1974 33.6148 27.8754 33.8618 26.0264 34.3348C22.7334 35.1728 22.3593 34.7478 20.7383 35.4678C19.5806 36.0442 18.5274 36.8101 17.6223 37.7338C15.3363 39.7478 13.9083 41.0038 13.3733 43.0218C13.1293 43.9348 13.1682 44.6308 12.5232 45.2878C11.9962 45.8188 11.5083 45.8228 10.4463 46.7038C9.83731 47.2038 9.52922 47.4668 9.50222 47.8368C9.45022 48.5018 10.2773 48.6868 10.5403 49.6308C10.6708 50.2742 10.5707 50.943 10.2573 51.5198C9.83058 52.3433 9.21607 53.0548 8.4634 53.5968C7.5784 54.3518 7.22041 54.4268 6.95241 55.0128C6.68441 55.5988 6.89042 55.8938 6.76442 56.5238C6.57942 57.4408 5.97034 57.6178 4.49734 59.0738C3.59475 59.9756 2.77317 60.9551 2.04226 62.0009C1.12926 63.2359 1.04219 63.5668 1.00319 63.7948C0.980588 64.371 1.07816 64.9456 1.28957 65.482C1.50098 66.0184 1.82162 66.505 2.23122 66.9108C3.31466 68.1061 4.67727 69.0145 6.19729 69.5548C7.11281 70.1107 8.15012 70.4347 9.21926 70.4988C10.2623 70.4638 10.5613 70.0699 12.0523 69.9319C12.8387 69.8239 13.638 69.8557 14.4134 70.0258C15.7198 70.4248 16.8719 71.2159 17.7134 72.2919C18.5475 73.2094 19.2179 74.2634 19.6953 75.4078C20.6753 77.6938 20.0304 78.1418 20.7344 79.8458C21.6784 82.1318 24.2433 84.7289 26.9663 84.8459C28.1153 84.8969 29.5913 84.4558 29.7993 85.1288C29.7899 85.4531 29.7598 85.7764 29.7092 86.0968C29.7073 86.1205 29.7073 86.1442 29.7092 86.1678C29.704 86.6088 29.8448 87.0391 30.1094 87.3918" stroke="#0A4B98" stroke-linecap="round" stroke-linejoin="round"/>
<path d="M57.9551 44.1428C56.1551 44.5088 54.1942 44.1628 50.5742 43.4938C49.2642 43.2498 48.4501 43.0608 47.8281 42.8838" stroke="#0A4B98" stroke-linecap="round" stroke-linejoin="round"/>
<path d="M58.094 44.1162H58.0859" stroke="#0A4B98" stroke-linecap="round" stroke-linejoin="round"/>
<path d="M59.2976 43.7256C58.9797 43.8602 58.6525 43.9718 58.3186 44.0596C58.2436 44.0796 58.1688 44.0946 58.0938 44.1106" stroke="#0A4B98" stroke-linecap="round" stroke-linejoin="round"/>
<path d="M67.6931 37.8174C66.1893 39.1472 64.6031 40.381 62.9441 41.5114C61.8099 42.3537 60.6008 43.0901 59.332 43.7114" stroke="#0A4B98" stroke-linecap="round" stroke-linejoin="round"/>
<path d="M67.8958 37.6436C67.8528 37.6826 67.8096 37.7186 67.7656 37.7576" stroke="#0A4B98" stroke-linecap="round" stroke-linejoin="round"/>
<path d="M69.2632 36.4951C68.8032 36.8611 68.3632 37.2351 67.9062 37.6321" stroke="#0A4B98" stroke-linecap="round" stroke-linejoin="round"/>
<path d="M78.157 32.5088C77.999 32.5168 77.838 32.5248 77.677 32.5398C75.8674 32.7627 74.1275 33.3747 72.5769 34.3338C71.4331 34.9284 70.349 35.6316 69.3398 36.4338" stroke="#0A4B98" stroke-linecap="round" stroke-linejoin="round"/>
<path d="M88.3254 35.4009C86.9142 34.6541 85.4349 34.0439 83.9075 33.5789C82.0933 32.8939 80.1734 32.5305 78.2344 32.5049" stroke="#0A4B98" stroke-linecap="round" stroke-linejoin="round"/>
<path d="M95.6111 42.3143C95.5566 41.9748 95.4645 41.6424 95.3362 41.3233C94.9552 40.3873 94.2361 39.7533 92.7861 38.4903C91.5094 37.3694 90.1165 36.3881 88.6311 35.5633C88.5684 35.528 88.4939 35.4887 88.4072 35.4453C88.3842 35.4293 88.36 35.4173 88.332 35.4023" stroke="#0A4B98" stroke-linecap="round" stroke-linejoin="round"/>
<path d="M96.5269 49.809C96.1464 49.5834 95.8318 49.262 95.6141 48.877C95.2921 48.287 95.402 47.854 95.523 46.737C95.554 46.437 95.5861 46.084 95.6141 45.667C95.6611 44.951 95.696 44.341 95.7 43.798C95.7182 43.3082 95.688 42.8178 95.6099 42.334" stroke="#0A4B98" stroke-linecap="round" stroke-linejoin="round"/>
<path d="M97.8689 50.3684C97.4054 50.2453 96.9606 50.06 96.5469 49.8174" stroke="#0A4B98" stroke-linecap="round" stroke-linejoin="round"/>
<path d="M105.824 50.6184L103.266 50.5754C102.788 50.5721 102.31 50.5931 101.834 50.6385C100.925 50.7523 100.006 50.7577 99.0957 50.6544C98.8144 50.6138 98.5359 50.556 98.2617 50.4814" stroke="#0A4B98" stroke-linecap="round" stroke-linejoin="round"/>
<path d="M105.985 50.6236C105.947 50.6216 105.909 50.6216 105.871 50.6236" stroke="#0A4B98" stroke-linecap="round" stroke-linejoin="round"/>
<path d="M121.23 49.7783C119.772 50.1859 118.278 50.4537 116.769 50.5783C115.796 50.6613 114.502 50.6653 111.953 50.6723C110.427 50.6723 108.912 50.6643 105.988 50.6253" stroke="#0A4B98" stroke-linecap="round" stroke-linejoin="round"/>
<path d="M129.988 48.8184C127.904 48.838 125.823 48.9839 123.756 49.2554C122.694 49.4324 121.923 49.6094 121.238 49.7744" stroke="#0A4B98" stroke-linecap="round" stroke-linejoin="round"/>
<path d="M139.297 48.29C137.749 48.5489 136.184 48.6804 134.615 48.683C132.829 48.73 131.31 48.77 130.008 48.813" stroke="#0A4B98" stroke-linecap="round" stroke-linejoin="round"/>
<path d="M143.069 47.2949C142.518 47.4949 141.81 47.7199 140.969 47.9319C140.579 48.0319 140.163 48.1319 139.718 48.2149L139.344 48.2859" stroke="#0A4B98" stroke-linecap="round" stroke-linejoin="round"/>
<path d="M146.945 46.1191C145.992 46.2918 145.058 46.5512 144.152 46.8941C143.924 46.9811 143.558 47.1221 143.074 47.2941" stroke="#0A4B98" stroke-linecap="round" stroke-linejoin="round"/>
<path d="M151.021 45.7246C149.668 45.7549 148.319 45.8839 146.984 46.1106" stroke="#0A4B98" stroke-linecap="round" stroke-linejoin="round"/>
<path d="M189.675 105.533C189.624 103.674 189.685 101.814 189.856 99.962C190.144 95.831 190.474 92.978 190.611 91.652C191.008 87.3827 191.071 83.0891 190.8 78.81C190.478 70.76 190.312 66.739 188.44 61.719C187.24 58.489 185.84 54.767 182.208 51.71C179.269 49.239 176.408 48.503 171.632 47.272C166.567 46.0348 161.357 45.4948 156.146 45.667C154.182 45.667 152.518 45.667 151.051 45.722" stroke="#0A4B98" stroke-linecap="round" stroke-linejoin="round"/>
<path d="M194.106 118.036C194.098 117.847 194.086 117.658 194.059 117.462C194.013 117.099 193.934 116.741 193.823 116.392C193.591 115.682 193.234 115.02 192.768 114.437C192.56 114.158 192.343 113.878 192.123 113.56C191.822 113.125 191.552 112.669 191.317 112.195C190.572 110.562 190.079 108.826 189.857 107.045C189.767 106.549 189.707 106.048 189.676 105.545" stroke="#0A4B98" stroke-linecap="round" stroke-linejoin="round"/>
<path d="M193.84 124.359C193.626 123.259 193.587 122.132 193.725 121.019C193.819 120.452 193.965 119.854 194.044 119.205C194.096 118.827 194.116 118.446 194.103 118.064" stroke="#0A4B98" stroke-linecap="round" stroke-linejoin="round"/>
<path d="M68.3016 88.7334L67.1016 88.8204" stroke="#0A4B98" stroke-linecap="round" stroke-linejoin="round"/>
<path d="M81.5479 88.158C81.1828 88.01 80.8029 87.9018 80.4148 87.835L68.3398 88.728" stroke="#0A4B98" stroke-linecap="round" stroke-linejoin="round"/>
<path d="M87.7727 100.622L87.0208 94.5121L86.9307 93.7761C86.5807 93.0644 86.1726 92.3828 85.7107 91.7381C84.6875 90.1805 83.2475 88.9414 81.5547 88.1621" stroke="#0A4B98" stroke-linecap="round" stroke-linejoin="round"/>
<path d="M99.2504 99.2998L87.7734 100.642" stroke="#0A4B98" stroke-linecap="round" stroke-linejoin="round"/>
<path d="M93.7852 87.4619L93.8682 87.6469" stroke="#0A4B98" stroke-linecap="round" stroke-linejoin="round"/>
<path d="M91.3125 81.9062L91.4614 82.4453L93.7476 87.3873" stroke="#0A4B98" stroke-linecap="round" stroke-linejoin="round"/>
<path d="M91.293 81.835L91.309 81.89" stroke="#0A4B98" stroke-linecap="round" stroke-linejoin="round"/>
<path d="M88.5703 72.0615L88.6843 72.4665" stroke="#0A4B98" stroke-linecap="round" stroke-linejoin="round"/>
<path d="M88.3242 71.1729L88.4142 71.4999" stroke="#0A4B98" stroke-linecap="round" stroke-linejoin="round"/>
<path d="M88.2148 70.7881L88.2818 71.0281" stroke="#0A4B98" stroke-linecap="round" stroke-linejoin="round"/>
<path d="M87.5508 67.7861L87.637 68.7071L88.0698 70.2611" stroke="#0A4B98" stroke-linecap="round" stroke-linejoin="round"/>
<path d="M68.8203 47.751C70.2403 48.101 71.7032 48.451 71.9202 48.451C72.1372 48.451 75.7372 49.033 79.2302 49.608C82.6372 50.167 85.9421 50.718 85.9421 50.718" stroke="#0A4B98" stroke-linecap="round" stroke-linejoin="round"/>
<path d="M66.1211 47.0713C66.5211 47.1713 67.644 47.4573 68.8 47.7443" stroke="#0A4B98" stroke-linecap="round" stroke-linejoin="round"/>
<path d="M58.375 44.0811L65.708 46.9301L65.968 47.0301L66.105 47.0651" stroke="#0A4B98" stroke-linecap="round" stroke-linejoin="round"/>
<path d="M58.1445 47.1765L58.3175 44.0605" stroke="#0A4B98" stroke-linecap="round" stroke-linejoin="round"/>
<path d="M60.2595 72.306C60.1065 71.334 59.9886 70.331 59.9136 69.296C59.9016 69.146 59.8896 68.996 59.8816 68.847L57.8984 51.709" stroke="#0A4B98" stroke-linecap="round" stroke-linejoin="round"/>
<path d="M62.0042 79.1543C61.227 76.9751 60.6491 74.7299 60.2773 72.4463" stroke="#0A4B98" stroke-linecap="round" stroke-linejoin="round"/>
<path d="M64.0078 83.8108C63.2438 82.3097 62.5758 80.7615 62.0078 79.1758" stroke="#0A4B98" stroke-linecap="round" stroke-linejoin="round"/>
<path d="M67.0955 88.8154C65.9159 87.2479 64.8849 85.5741 64.0156 83.8154" stroke="#0A4B98" stroke-linecap="round" stroke-linejoin="round"/>
<path d="M87.4834 67.0861L85.9375 50.7191L99.0935 50.6561L101.833 50.6401L105.822 50.6201H105.982" stroke="#0A4B98" stroke-linecap="round" stroke-linejoin="round"/>
<path d="M106.133 64.9092C105.755 65.4791 105.304 65.9974 104.792 66.4512C104.078 67.0877 103.223 67.545 102.297 67.7852" stroke="#0A4B98" stroke-linecap="round" stroke-linejoin="round"/>
<path d="M107.958 60.5889C107.608 62.1229 106.991 63.5836 106.137 64.9049" stroke="#0A4B98" stroke-linecap="round" stroke-linejoin="round"/>
<path d="M105.992 50.6309C107.619 53.2901 108.382 56.3882 108.176 59.4989C108.176 59.4989 108.125 59.8849 107.983 60.4899" stroke="#0A4B98" stroke-linecap="round" stroke-linejoin="round"/>
<path d="M116.297 66.1562L116.497 63.4922L117.158 54.8402L117.197 54.2972L117.236 53.7862L116.764 50.5762L105.98 50.6192C105.98 50.6192 105.98 50.6192 105.98 50.6272C107.81 53.0274 108.629 56.0476 108.262 59.0432C108.196 59.5303 108.099 60.0126 107.97 60.4872C107.966 60.5166 107.96 60.5456 107.951 60.5742C107.952 60.5781 107.952 60.5822 107.951 60.5862C107.436 62.0618 106.827 63.5033 106.129 64.9022" stroke="#0A4B98" stroke-linecap="round" stroke-linejoin="round"/>
<path d="M116.297 66.1568L116.513 63.4928L117.225 54.8408L117.241 54.6407L117.201 54.3027L116.768 50.5807L121.217 49.7808H121.229C121.229 49.7808 121.229 49.7808 121.237 49.7808L129.987 48.8248H136.88L139.296 48.3017C139.308 48.3017 139.324 48.3017 139.34 48.2937L140.965 47.9397L143.065 47.3027L146.936 46.1308C146.948 46.1308 146.96 46.1307 146.976 46.1227L151.013 45.7367C151.022 45.7349 151.031 45.7349 151.04 45.7367V54.1487" stroke="#0A4B98" stroke-linecap="round" stroke-linejoin="round"/>
<path d="M117.314 66.3221L117.094 66.2871" stroke="#0A4B98" stroke-linecap="round" stroke-linejoin="round"/>
<path d="M118.318 66.4826C118.209 66.4626 118.102 66.4476 118 66.4316" stroke="#0A4B98" stroke-linecap="round" stroke-linejoin="round"/>
<path d="M123.031 67.2416C122.823 67.2106 122.619 67.1746 122.418 67.1416" stroke="#0A4B98" stroke-linecap="round" stroke-linejoin="round"/>
<path d="M147.816 71.2387C145.57 70.8807 139.094 69.8387 132.59 68.7837C132.216 68.7287 131.842 68.6657 131.469 68.6027C131.096 68.5397 130.717 68.4847 130.347 68.4217C129.355 68.2647 128.372 68.1027 127.416 67.9497C127.18 67.9107 126.94 67.8747 126.708 67.8357C126.476 67.7967 126.236 67.7607 126.008 67.7217" stroke="#0A4B98" stroke-linecap="round" stroke-linejoin="round"/>
<path d="M148.161 71.2948C148.094 71.2828 148.019 71.2708 147.941 71.2598" stroke="#0A4B98" stroke-linecap="round" stroke-linejoin="round"/>
<path d="M176.485 66.7785C176.744 66.8884 177.017 66.965 177.295 67.0065C178.042 67.1571 178.818 67.0562 179.502 66.7195C179.555 66.6925 179.607 66.6625 179.656 66.6295C180.037 66.3478 180.334 65.9674 180.514 65.5295C180.64 65.2935 180.789 65.0065 180.978 64.6445C180.978 64.6445 181.218 64.1845 182.583 61.6225C183.143 60.6918 183.617 59.712 183.999 58.6955C184.093 58.4205 184.172 58.1405 184.247 57.8575C184.344 57.6348 184.38 57.3906 184.352 57.1495C184.279 56.9191 184.157 56.707 183.995 56.5275C183.672 56.2023 183.321 55.9049 182.948 55.6385C182.417 55.2015 181.87 54.7845 181.311 54.3795C180.058 53.4773 178.749 52.656 177.392 51.9205C175.873 51.1016 174.293 50.3996 172.667 49.8205C169.889 48.8295 167.667 48.4985 163.224 47.8375C159.9 47.3375 158.003 47.2745 155.859 47.8375C154.059 48.3095 152.967 48.4515 152.271 49.3485C151.753 50.0221 151.465 50.844 151.449 51.6935C151.448 52.0203 151.502 52.3449 151.61 52.6535C152.01 53.7785 153.074 54.3455 155.768 55.2345" stroke="#0A4B98" stroke-linecap="round" stroke-linejoin="round"/>
<path d="M175.375 66.043C175.695 66.3473 176.065 66.5949 176.469 66.775" stroke="#0A4B98" stroke-linecap="round" stroke-linejoin="round"/>
<path d="M174.031 64.4961C174.433 65.0427 174.879 65.5557 175.364 66.0301" stroke="#0A4B98" stroke-linecap="round" stroke-linejoin="round"/>
<path d="M167.969 59.3818C169.781 60.2536 171.41 61.4636 172.769 62.9468C173.241 63.4698 173.646 63.9978 174.028 64.4888" stroke="#0A4B98" stroke-linecap="round" stroke-linejoin="round"/>
<path d="M164.68 57.9297C164.755 57.9607 164.837 57.9967 164.928 58.0297C165.919 58.4387 166.935 58.8557 167.938 59.3597" stroke="#0A4B98" stroke-linecap="round" stroke-linejoin="round"/>
<path d="M162.66 57.3203C163.337 57.4798 164.004 57.6822 164.655 57.9263" stroke="#0A4B98" stroke-linecap="round" stroke-linejoin="round"/>
<path d="M155.773 55.2393C156.352 55.4283 157.008 55.6392 157.749 55.8652C160.149 56.6092 161.549 57.0103 162.455 57.2653" stroke="#0A4B98" stroke-linecap="round" stroke-linejoin="round"/>
<path d="M130.553 98.8309L99.2532 99.3029L93.9531 87.8379" stroke="#0A4B98" stroke-linecap="round" stroke-linejoin="round"/>
<path d="M126.973 88.5361L130.562 98.8281L141.327 100.575" stroke="#0A4B98" stroke-linecap="round" stroke-linejoin="round"/>
<path d="M138.109 93.5682L140.182 98.0932L145.993 92.0772L153.855 83.3662" stroke="#0A4B98" stroke-linecap="round" stroke-linejoin="round"/>
<path d="M146.845 78.0537L153.856 83.3647L140.184 98.0917L141.321 100.575L148.403 101.775" stroke="#0A4B98" stroke-linecap="round" stroke-linejoin="round"/>
<path d="M180.201 66.4915C180.161 66.5035 179.901 66.6055 179.508 66.7115C178.528 67.018 177.481 67.0384 176.491 66.7705C176.485 66.769 176.48 66.769 176.475 66.7705C176.052 66.6265 175.675 66.3741 175.381 66.0385L175.369 66.0265C175.034 65.6335 174.586 65.1015 174.035 64.4925C174.033 64.4925 174.031 64.4916 174.029 64.4901C174.028 64.4886 174.027 64.4866 174.027 64.4845C172.277 62.4872 170.235 60.7655 167.971 59.3775C167.961 59.3706 167.951 59.3652 167.94 59.3615C166.914 58.7568 165.821 58.2761 164.682 57.9295C164.674 57.9295 164.666 57.9295 164.659 57.9215L162.659 57.3155L162.454 57.2565L155.77 55.2305C155.892 55.3875 158.288 58.5115 157.005 61.5135C156.257 62.7744 155.241 63.8554 154.029 64.6796C152.816 65.5038 151.437 66.051 149.99 66.2825L149.061 69.7485L148.629 71.3615" stroke="#0A4B98" stroke-linecap="round" stroke-linejoin="round"/>
<path d="M176.09 72.948C176.428 72.602 176.664 72.37 176.727 72.318C177.477 71.2381 178.166 70.1177 178.793 68.962C179.513 67.711 180.154 66.574 180.193 66.499" stroke="#0A4B98" stroke-linecap="round" stroke-linejoin="round"/>
<path d="M172.324 76.8662C173.516 75.6152 175.18 73.8762 176.089 72.9512" stroke="#0A4B98" stroke-linecap="round" stroke-linejoin="round"/>
<path d="M165.391 82.824L170.924 78.335C170.924 78.335 171.51 77.717 172.312 76.875" stroke="#0A4B98" stroke-linecap="round" stroke-linejoin="round"/>
<path d="M164.828 83.2869L164.867 83.2559" stroke="#0A4B98" stroke-linecap="round" stroke-linejoin="round"/>
<path d="M154.637 93.0494L155.837 91.3694L161.503 85.9874L164.796 83.3164" stroke="#0A4B98" stroke-linecap="round" stroke-linejoin="round"/>
<path d="M169.441 98.7382C169.362 98.6512 169.28 98.5611 169.197 98.4671C168.089 97.1669 167.342 95.5987 167.03 93.9192C167.03 93.9192 167.022 93.7662 167.01 93.4982C166.904 91.5263 166.693 89.5615 166.377 87.6122C166.213 86.2678 165.818 84.9618 165.209 83.7522C165.107 83.58 164.977 83.426 164.824 83.2962L164.832 83.2881C164.846 83.2788 164.859 83.2684 164.871 83.2572L165.394 82.8282C166.653 81.7852 169.765 79.1852 172.315 76.8792L172.327 76.8672C173.741 75.7243 175.005 74.4091 176.092 72.9521V72.9521C176.167 72.8461 177.579 70.8592 178.792 68.9662C179.49 67.9782 180.071 66.9128 180.523 65.7912C180.539 65.7499 180.546 65.7059 180.544 65.6619C180.542 65.6179 180.531 65.5748 180.511 65.5352L180.523 65.7912L181.329 80.9622L181.754 95.5511C181.245 96.3881 180.672 97.1838 180.038 97.9312" stroke="#0A4B98" stroke-linecap="round" stroke-linejoin="round"/>
<path d="M177.204 100.497C176.363 101.061 175.379 101.373 174.367 101.397C174.185 101.396 174.004 101.382 173.824 101.354C172.15 100.916 170.634 100.015 169.449 98.7539" stroke="#0A4B98" stroke-linecap="round" stroke-linejoin="round"/>
<path d="M179.929 98.0605C179.15 98.9957 178.238 99.8122 177.223 100.485" stroke="#0A4B98" stroke-linecap="round" stroke-linejoin="round"/>
<path d="M182.105 107.882C181.319 109.097 180.316 110.156 179.146 111.006C178.111 111.779 176.927 112.327 175.668 112.615L178.241 118.847C179.464 120.301 180.544 121.869 181.468 123.529C181.468 123.541 181.48 123.549 181.484 123.56C181.767 124.071 182.043 124.61 182.302 125.173L193.842 124.362C193.842 124.228 193.948 121.281 194.047 119.208C194.066 118.779 194.086 118.39 194.106 118.067V118.039C194.113 117.847 194.097 117.654 194.059 117.465C193.789 116.395 193.354 115.374 192.768 114.439C192.052 113.2 191.316 112.196 191.316 112.196L189.676 105.543V105.535H189.267L182.113 107.872" stroke="#0A4B98" stroke-linecap="round" stroke-linejoin="round"/>
<path d="M167.73 104.915C170.202 104.025 172.596 102.935 174.89 101.657C174.969 101.61 175.039 101.563 175.111 101.511C175.166 101.476 175.217 101.436 175.264 101.401C175.966 101.237 176.626 100.931 177.204 100.501C177.209 100.496 177.214 100.492 177.22 100.489C178.219 99.7951 179.128 98.981 179.927 98.0647C179.97 98.024 180.008 97.9791 180.041 97.9307C180.654 97.2412 181.226 96.5173 181.756 95.7627L182.256 96.6477C182.256 96.6477 183.995 105.63 182.114 107.873C182.111 107.876 182.109 107.88 182.106 107.885C181.243 109.036 180.251 110.084 179.148 111.009C178.188 111.898 176.97 112.461 175.67 112.618C175.67 112.618 171.503 105.933 167.73 104.926" stroke="#0A4B98" stroke-linecap="round" stroke-linejoin="round"/>
<path d="M148.402 101.779L151.002 101L153.079 100.788L155.157 100.576C155.157 100.576 161.503 101.851 164.824 103.456C167.299 104.656 167.692 104.88 167.724 104.916C167.732 104.916 167.732 104.924 167.724 104.924C167.719 104.925 167.714 104.925 167.708 104.924H167.719H167.727L174.888 101.666L175.203 101.524C175.203 101.524 175.172 101.524 175.109 101.524C174.86 101.501 174.611 101.464 174.365 101.414C172.511 101.007 170.808 100.09 169.447 98.7661L169.435 98.7541C169.384 98.7071 169.335 98.6601 169.282 98.6081L169.191 98.4821C168.191 96.9589 167.451 95.2795 167.003 93.5131C166.491 91.5952 166.278 89.61 166.37 87.6271C166.077 86.3132 165.686 85.0229 165.201 83.7671C165.064 83.4761 164.93 83.2991 164.816 83.3111C164.809 83.3182 164.801 83.3249 164.793 83.3311C164.293 83.7761 156.204 90.8621 154.634 93.0651L148.402 101.779Z" stroke="#0A4B98" stroke-linecap="round" stroke-linejoin="round"/>
<path d="M68.7975 122.529C68.7975 122.529 68.7505 123.04 68.7145 123.816C68.6511 124.992 68.6475 126.17 68.7035 127.345C68.7053 127.361 68.7053 127.377 68.7035 127.392C68.7388 128.215 68.8574 129.032 69.0575 129.831L71.1905 135.531L71.2455 135.677L71.4386 137.168L81.9154 137.968L81.9244 137.948L82.9474 134.584L84.2025 130.146V130.134L84.9774 124.602V122.485" stroke="#0A4B98" stroke-linecap="round" stroke-linejoin="round"/>
<path d="M67.8536 113.37L68.0027 114.582L68.6636 119.882L68.7977 122.526L84.9847 122.479L85.5848 122.526L86.2457 119.052L86.2737 118.852L86.8248 114.886L86.8326 114.839L86.8836 114.591L87.5836 111.152L88.4097 110.086L88.4217 110.066L88.7166 109.688L87.7686 100.643V100.623L87.1788 94.9811C87.1788 94.9811 87.1237 94.8081 87.0167 94.5131C86.6662 93.5501 86.2276 92.6215 85.7066 91.7391C84.7746 90.1611 83.3936 88.5291 81.5516 88.1631C81.5516 88.1631 81.5518 88.1631 81.5438 88.1631L68.3358 88.7341H68.3126C68.3073 88.7334 68.302 88.7334 68.2967 88.7341C68.0057 88.8131 63.8388 89.9931 62.9178 93.1721C62.7727 93.6922 62.7168 94.2333 62.7527 94.7721L63.1526 96.7121" stroke="#0A4B98" stroke-linecap="round" stroke-linejoin="round"/>
<path d="M64.4453 102.948L64.6453 103.928L67.2854 111.691" stroke="#0A4B98" stroke-linecap="round" stroke-linejoin="round"/>
<path d="M67.9854 114.527C67.9774 114.503 67.9644 114.476 67.9534 114.44C67.9424 114.404 67.9262 114.361 67.9062 114.314" stroke="#0A4B98" stroke-linecap="round" stroke-linejoin="round"/>
<path d="M38.6304 81.1704C38.0949 81.0081 37.5407 80.9157 36.9815 80.8954C36.6739 80.9167 36.3657 80.8653 36.0816 80.7454C33.8666 79.6204 34.8574 72.4634 36.2234 67.7144C36.7784 65.7864 37.2465 64.2674 38.3875 60.5344C38.7741 59.2631 39.0918 57.9719 39.3394 56.6664C39.8744 53.9324 40.0125 52.2954 40.8975 48.7344C41.3665 46.8494 42.3145 43.3524 42.3145 43.3524C42.3145 42.9744 42.5144 41.7114 42.9634 41.5264L43.0264 41.5424L47.6136 42.8294L47.7596 42.8724C47.7596 42.8724 47.7835 42.8724 47.8265 42.8884C48.5735 43.0614 55.4984 44.6434 57.9534 44.1474C58.0004 44.1394 58.0446 44.1274 58.0836 44.1194C58.0836 44.1194 58.0836 44.1194 58.0916 44.1194L58.1426 47.1804L57.8904 51.7124L59.9046 69.2994L60.2515 72.3094V72.3524C60.2515 72.3524 60.2595 72.3874 60.2715 72.4524C60.3965 73.0524 61.0716 76.2174 61.9976 79.1604C61.9976 79.1684 61.9974 79.1764 62.0064 79.1804C62.4454 80.814 63.1191 82.3752 64.0064 83.8154V83.8234L67.0875 88.8234C67.0875 88.8234 62.9245 90.8104 62.9095 93.1754V93.1874C62.8331 94.3676 62.9125 95.5528 63.1456 96.7124L64.4315 102.952L67.2725 111.694L67.8426 113.374L67.9886 114.574V114.59" stroke="#0A4B98" stroke-linecap="round" stroke-linejoin="round"/>
<path d="M42.8845 83.6128C42.4593 83.1686 41.9828 82.7762 41.4653 82.4438C41.4183 82.4088 41.3715 82.3808 41.3235 82.3498C40.4883 81.8375 39.587 81.4418 38.6445 81.1738" stroke="#0A4B98" stroke-linecap="round" stroke-linejoin="round"/>
<path d="M47.7905 89.9011C47.1905 89.0511 46.1266 87.6701 44.3906 85.4201C43.9261 84.7914 43.4252 84.1904 42.8906 83.6201" stroke="#0A4B98" stroke-linecap="round" stroke-linejoin="round"/>
<path d="M49.9475 93.5864C49.427 92.5318 48.8476 91.5072 48.2124 90.5174C48.1124 90.3604 47.9835 90.1715 47.8125 89.9395" stroke="#0A4B98" stroke-linecap="round" stroke-linejoin="round"/>
<path d="M56.4922 105.764C55.3871 104.302 54.3725 102.774 53.4541 101.188C52.9781 100.401 52.6042 99.7127 52.3022 99.0947C51.7592 98.0047 51.4211 97.1117 51.0701 96.2107C50.7551 95.3997 50.433 94.5777 49.957 93.5947" stroke="#0A4B98" stroke-linecap="round" stroke-linejoin="round"/>
<path d="M63.9441 110.498C62.6661 109.924 61.4852 109.577 60.7732 109.31C59.0587 108.532 57.5823 107.311 56.4961 105.773" stroke="#0A4B98" stroke-linecap="round" stroke-linejoin="round"/>
<path d="M67.8394 114.153C67.4205 113.084 66.7055 112.158 65.7783 111.482C65.2045 111.117 64.6049 110.795 63.9844 110.518" stroke="#0A4B98" stroke-linecap="round" stroke-linejoin="round"/>
<path d="M87.5513 67.7863L87.4844 67.0863L102.297 67.7863L104.791 66.4523L105.342 66.1523H116.296L117.096 66.2823L117.316 66.3174L118.001 66.4274L118.319 66.4783L122.419 67.1393L123.033 67.2393L126.007 67.7193L126.707 67.8333L127.416 67.9473L130.347 68.4193L131.468 68.6003L132.59 68.7813L147.817 71.2363L147.942 71.2563L148.163 71.2914L148.635 71.3663L146.839 78.0533L138.104 93.5663L126.962 88.5343L93.9482 87.8344C93.9482 87.8344 93.9173 87.7674 93.8613 87.6454C93.8383 87.5904 93.8103 87.5313 93.7793 87.4603C93.7673 87.4363 93.7554 87.4093 93.7434 87.3853C93.1494 86.0593 91.4263 82.2313 91.3083 81.9043C91.3083 81.8963 91.3083 81.8924 91.3083 81.8884C91.3083 81.8844 91.3005 81.8603 91.2935 81.8333C91.1195 81.2033 89.5663 75.6333 88.6853 72.4653C88.6463 72.3233 88.6063 72.1903 88.5713 72.0603C88.5163 71.8603 88.4653 71.6703 88.4143 71.4973C88.3823 71.3833 88.3512 71.2733 88.3232 71.1703C88.3122 71.1193 88.2964 71.0704 88.2844 71.0244C88.2604 70.9374 88.2373 70.8593 88.2173 70.7843C88.1263 70.4613 88.0764 70.2764 88.0764 70.2764V70.2563L87.5513 67.7863Z" stroke="#0A4B98" stroke-linecap="round" stroke-linejoin="round"/>
<path d="M98.2603 50.481C98.2603 50.481 98.1022 50.442 97.8662 50.367C97.4094 50.2249 96.9668 50.0404 96.5442 49.816C96.5362 49.816 96.5323 49.816 96.5283 49.808C96.3215 49.7217 96.1341 49.5947 95.9773 49.4346C95.8205 49.2745 95.6973 49.0846 95.6152 48.876C95.5263 48.1664 95.4961 47.4506 95.5251 46.736C95.5411 45.426 95.6152 44.061 95.6152 44.061C95.6542 43.9767 95.683 43.8881 95.7012 43.797C95.8045 43.3099 95.7736 42.8038 95.6113 42.333C95.6135 42.3265 95.6135 42.3195 95.6113 42.313C95.1633 40.826 93.5341 38.449 88.4111 35.443L88.3562 35.408L88.3362 35.4C87.8952 35.223 81.3291 32.646 78.2441 32.5H78.2244C78.2244 32.5 78.2043 32.5 78.1653 32.5C74.9342 33.018 71.8946 34.3718 69.3481 36.427C69.3251 36.447 69.2972 36.466 69.2732 36.486C68.8252 36.832 68.3729 37.211 67.9163 37.623L67.9043 37.635C67.8693 37.666 67.8302 37.698 67.7942 37.735C67.7868 37.7393 67.78 37.7447 67.7742 37.751C67.7519 37.7719 67.7287 37.7916 67.7043 37.81C66.9683 38.4 61.8693 42.468 59.3433 43.704C59.3309 43.7077 59.3192 43.7131 59.3083 43.72C59.0021 43.8842 58.6709 43.997 58.3281 44.054L58.3843 44.078C58.8953 44.29 62.7843 45.915 65.7173 46.927C65.8513 46.974 65.9852 47.021 66.1172 47.065C66.1172 47.065 66.1253 47.065 66.1333 47.065C66.9936 47.4047 67.8945 47.6309 68.8132 47.738C68.8199 47.7371 68.8266 47.7371 68.8333 47.738C69.1793 47.801 74.5893 48.781 79.2393 49.595C82.6463 50.195 85.6492 50.705 85.9512 50.705C86.6462 50.714 98.2603 50.481 98.2603 50.481Z" stroke="#0A4B98" stroke-linecap="round" stroke-linejoin="round"/>
<path d="M29.8018 85.1368C29.8018 85.1368 30.8409 79.1368 36.0809 80.7458L36.981 80.8958L38.63 81.1708C38.6336 81.1701 38.6373 81.1701 38.6409 81.1708C39.6101 81.5274 40.5528 81.9521 41.462 82.4418C42.0309 82.6986 42.5212 83.102 42.8829 83.6108V83.6108C44.4054 85.7893 46.0411 87.8865 47.783 89.8938C47.7892 89.9022 47.7956 89.9102 47.8028 89.9178L47.8109 89.9338L49.9439 93.5808L51.0579 96.1968L52.2889 99.0808L56.4788 105.75C56.4779 105.752 56.4779 105.755 56.4788 105.758C57.5529 107.019 58.7985 108.123 60.179 109.039C61.4786 109.379 62.7359 109.863 63.9278 110.483C63.9416 110.488 63.9548 110.494 63.9669 110.503C65.6146 111.261 66.9689 112.538 67.8228 114.138C67.8468 114.189 67.87 114.244 67.89 114.299C67.906 114.338 67.9208 114.382 67.9368 114.425C67.9494 114.453 67.9598 114.482 67.9678 114.512C67.9678 114.524 67.98 114.54 67.984 114.551C67.988 114.562 67.984 114.563 67.984 114.567L68.6448 120.484L68.7789 122.514C68.4421 122.332 68.0673 122.233 67.6849 122.223C67.3372 122.208 66.9899 122.26 66.6619 122.376C66.6619 122.376 65.8239 122.36 64.9549 122.262C64.3372 122.24 63.7316 122.085 63.18 121.806L63.161 121.798L50.272 115.637L39.023 108.323L39.012 108.315C38.7627 108.095 38.5286 107.859 38.3118 107.607C38.2528 107.54 38.1899 107.469 38.1239 107.391C38.0689 107.328 38.0128 107.265 37.9578 107.191C37.9028 107.117 37.8479 107.053 37.7889 106.979C37.7299 106.905 37.6789 106.837 37.6229 106.763C37.5669 106.689 37.4969 106.594 37.4339 106.503C35.7786 104.16 34.7112 101.453 34.3218 98.6108C34.3228 98.6082 34.3228 98.6054 34.3218 98.6028C34.2278 98.4178 32.536 95.0858 32.992 93.5668C32.9909 93.5602 32.9909 93.5534 32.992 93.5468C33.035 93.3308 33.392 91.2888 32.201 90.2068L32.1768 90.1758L30.5369 87.9758L30.388 87.7828L30.16 87.4758L30.129 87.4328C30.129 87.4328 30.1208 87.4208 30.1048 87.3938C29.8834 86.9947 29.7473 86.5541 29.7049 86.0998C29.6771 85.7755 29.7099 85.449 29.8018 85.1368V85.1368Z" stroke="#0A4B98" stroke-linecap="round" stroke-linejoin="round"/>
<path d="M122.464 54.6514L121.746 63.3034L122.401 54.6514H122.464Z" fill="#F4F8F7" stroke="#0A4B98" stroke-miterlimit="10"/>
<path d="M121.747 63.3037C125.635 63.8547 128.205 63.4647 133.21 63.8897C137.074 64.2167 140.858 64.9007 141.519 65.0227C146.673 65.9627 148.239 66.7107 150.962 66.0617C152.044 65.8017 155.349 65.0107 156.722 62.0957C157.611 60.2037 157.677 57.4377 156.154 55.7687C155.278 54.9286 154.151 54.398 152.945 54.2577C150.449 53.7462 147.873 53.7783 145.391 54.3518C143.266 54.7688 140.04 54.6937 133.591 54.5407C129.96 54.4537 127.134 54.5097 122.468 54.6507L119.9 54.7297C118.31 54.6473 116.751 55.1896 115.556 56.2407C114.861 56.9581 114.411 57.8764 114.269 58.8648C114.198 59.3487 114.251 59.8425 114.422 60.3007C114.914 61.5717 116.362 62.2208 119.238 62.8498C120.147 63.0498 120.974 63.1918 121.749 63.3018" fill="#F4F8F7"/>
<path d="M121.747 63.3037C125.635 63.8547 128.205 63.4647 133.21 63.8897C137.074 64.2167 140.858 64.9007 141.519 65.0227C146.673 65.9627 148.239 66.7107 150.962 66.0617C152.044 65.8017 155.349 65.0107 156.722 62.0957C157.611 60.2037 157.677 57.4377 156.154 55.7687C155.278 54.9286 154.151 54.398 152.945 54.2577C150.449 53.7462 147.873 53.7783 145.391 54.3518C143.266 54.7688 140.04 54.6937 133.591 54.5407C129.96 54.4537 127.134 54.5097 122.468 54.6507L119.9 54.7297C118.31 54.6473 116.751 55.1896 115.556 56.2407C114.861 56.9581 114.411 57.8764 114.269 58.8648C114.198 59.3487 114.251 59.8425 114.422 60.3007C114.914 61.5717 116.362 62.2208 119.238 62.8498C120.147 63.0498 120.974 63.1918 121.749 63.3018" stroke="#0A4B98" stroke-miterlimit="10"/>
</svg>
