<svg width="25" height="20" viewBox="0 0 25 20" fill="none" xmlns="http://www.w3.org/2000/svg">
<path d="M3.37751 0.697369C2.86955 0.910382 2.62377 0.926768 2.1322 0.762912C1.42761 0.549898 0.57556 0.762912 0.411704 1.18894C0.297004 1.48388 0.804959 2.7128 1.18183 3.02413C1.68978 3.43377 1.54231 4.77739 0.870502 6.15379C0.280619 7.34994 0.280619 7.36633 0.542789 7.87428C1.16544 9.03766 2.45991 9.28345 3.7216 8.48055C4.14763 8.21838 4.68836 7.95621 4.93414 7.89067C5.54041 7.75958 6.37608 7.00584 6.63825 6.3668C6.93319 5.6786 6.93319 5.66222 6.49078 5.66222C6.22861 5.66222 6.06475 5.80969 5.93367 6.15379C5.73704 6.67813 4.85221 7.30078 4.31149 7.30078C4.11486 7.30078 3.68883 7.5138 3.34473 7.79235C2.60738 8.38224 1.96834 8.41501 1.49316 7.90705C1.03436 7.43187 1.03436 7.41548 1.62424 6.2521C2.0175 5.48198 2.11581 5.07234 2.11581 4.23667C2.11581 3.08967 2.32882 2.53256 3.04979 1.87714C3.8363 1.13978 4.1804 1.02508 4.72113 1.30364C4.9833 1.45111 5.34378 1.76244 5.52403 1.99183L5.83535 2.43425L6.35969 2.07376C6.90042 1.69689 7.35922 1.71328 7.35922 2.10653C7.35922 2.40148 6.90042 2.81112 6.32692 3.02413C5.47487 3.35184 5.9009 3.82703 6.78572 3.53208C7.99826 3.13883 8.62091 1.66412 7.76886 1.27087C7.24452 1.02508 6.62186 1.02508 6.21222 1.2381C5.99921 1.35279 5.86812 1.32002 5.70427 1.1234C5.45848 0.84484 4.55727 0.418814 4.21317 0.435199C4.09847 0.435199 3.7216 0.549898 3.37751 0.697369ZM2.05027 1.58219C2.09943 1.68051 2.03388 1.87714 1.88641 2.02461C1.62424 2.28678 1.59147 2.28678 1.37846 1.99183C1.24737 1.82798 1.18183 1.61496 1.23099 1.54942C1.34569 1.33641 1.91918 1.36918 2.05027 1.58219Z" fill="#8A8A8A"/>
<path d="M8.83594 3.18823C8.83594 3.4504 9.11449 3.54872 10.835 3.87643C12.8176 4.23691 12.834 4.23691 15.5377 3.97474C20.4697 3.46679 21.6495 3.63064 22.731 4.92511C23.4683 5.82632 23.6158 6.71114 23.6322 10.5618C23.6486 12.4461 23.7141 14.0519 23.7796 14.1011C23.8452 14.1666 24.009 14.183 24.1565 14.1175C24.4023 14.0355 24.4187 13.6423 24.3204 10.2832C24.2712 8.23501 24.1401 6.23596 24.0418 5.82632C23.7469 4.7121 22.4688 3.48317 21.2071 3.12269C20.1584 2.81136 19.716 2.82775 15.4885 3.27016C13.2273 3.51594 12.195 3.46679 10.1468 3.04076C9.04895 2.81136 8.83594 2.84413 8.83594 3.18823Z" fill="#8A8A8A"/>
<path d="M5.0324 8.84114C4.78662 9.02139 4.78662 9.16886 4.99963 10.7583C5.2618 12.6918 5.52397 13.1833 6.44157 13.4947C6.94952 13.6585 7.24447 13.6421 8.03098 13.4619C8.55532 13.3472 9.0305 13.2817 9.07966 13.3308C9.12882 13.38 9.16159 13.6585 9.16159 13.9371C9.16159 14.232 9.30906 15.0349 9.50569 15.7559C9.75147 16.7063 9.81701 17.3125 9.75147 18.0499C9.63677 19.2296 9.80063 19.459 10.7674 19.4918C11.2753 19.5082 11.3736 19.4427 11.4228 19.1477C11.472 18.82 11.4064 18.7708 10.964 18.7708H10.4397L10.538 17.9024C10.6199 17.2306 10.5708 16.7882 10.325 16.0508C10.1447 15.5265 9.91533 14.3795 9.81701 13.5274C9.604 11.8889 9.39099 11.299 8.8011 10.7419C8.03098 10.0209 7.60495 10.6272 8.3423 11.3809C9.0305 12.0527 8.98134 12.4788 8.22761 12.6918C6.62181 13.1506 5.98277 12.7245 5.80253 11.1024C5.73699 10.5944 5.6059 9.82428 5.50759 9.39826C5.32735 8.72645 5.27819 8.6609 5.0324 8.84114Z" fill="#8A8A8A"/>
<path d="M17.9274 11.1679C17.6653 11.299 17.3212 11.512 17.1901 11.6431C17.059 11.7578 16.6166 12.02 16.2069 12.233C15.4204 12.6262 13.9129 12.7573 12.7496 12.4952C12.258 12.3968 12.1269 12.4296 12.045 12.6426C11.9794 12.8065 12.0286 12.9867 12.1433 13.0523C12.5038 13.2817 14.0604 13.4128 15.1255 13.3144C16.1086 13.2161 16.125 13.2161 16.4527 13.7405C16.8624 14.3959 17.5506 14.7236 18.4518 14.7236C19.2547 14.7236 19.3694 14.6581 19.2219 14.2812C19.1564 14.1009 18.9106 14.019 18.3862 14.019C17.8455 14.019 17.5669 13.9207 17.272 13.6094C17.0426 13.3964 16.8624 13.1178 16.8624 12.9867C16.8624 12.6426 18.2879 11.6923 18.6976 11.7578C19.2055 11.8233 19.779 12.9048 19.8937 14.019C19.9592 14.5106 20.1395 15.4118 20.3197 16.0181C20.5655 16.8701 20.6147 17.3781 20.5327 18.1974C20.418 19.3771 20.4672 19.4427 21.4831 19.4918C21.9255 19.5082 22.0402 19.4427 22.073 19.1313C22.1222 18.8364 22.0566 18.7709 21.6634 18.7709H21.1882L21.2537 17.6894C21.3029 16.9357 21.2537 16.4441 21.0735 16.0181C20.926 15.6904 20.7294 14.8383 20.6311 14.1173C20.4344 12.6262 20.1231 11.8725 19.4513 11.3154C18.8942 10.8402 18.5992 10.8074 17.9274 11.1679Z" fill="#8A8A8A"/>
<path d="M7.52344 15.1007C7.52344 15.3301 7.63814 15.7725 7.78561 16.0838C7.98224 16.5098 8.03139 16.9359 7.98224 17.7879C7.88392 19.0824 8.12971 19.6395 8.71959 19.5576C9.14562 19.492 9.34224 18.7711 8.9326 18.7711C8.71959 18.7711 8.67043 18.5417 8.67043 17.493C8.67043 15.9855 8.27718 14.6747 7.81838 14.6747C7.60537 14.6747 7.52344 14.8057 7.52344 15.1007Z" fill="#8A8A8A"/>
<path d="M18.4348 16.0179C18.6314 16.3948 18.7297 16.9847 18.7297 17.9514L18.7461 19.3442L19.3688 19.3934C19.8276 19.4262 19.9751 19.3934 19.9751 19.1804C19.9751 19.0493 19.8604 18.8854 19.7293 18.8363C19.549 18.7543 19.4835 18.4594 19.4835 17.6893C19.4835 16.2965 19.1558 15.4936 18.5823 15.4936H18.1562L18.4348 16.0179Z" fill="#8A8A8A"/>
</svg>
