<svg width="25" height="20" viewBox="0 0 25 20" fill="none" xmlns="http://www.w3.org/2000/svg">
<path d="M3.68201 0.413946C3.68201 0.601181 3.76712 0.754372 3.85222 0.754372C3.95435 0.754372 4.02244 1.23097 4.02244 1.86076C4.02244 2.72884 4.0735 2.96714 4.27776 2.96714C4.41393 2.96714 4.53307 2.81395 4.53307 2.62671C4.53307 2.32033 4.65222 2.28629 5.4352 2.28629H6.35435L6.45648 4.87352C6.52456 6.28629 6.57563 8.00544 6.57563 8.70331V9.94586H5.4352H4.3118L4.41393 6.96714C4.51605 4.15863 4.51605 3.98841 4.20967 3.98841C3.92031 3.98841 3.88627 4.22671 3.76712 6.91607C3.69903 8.5331 3.57988 9.8948 3.5118 9.94586C3.42669 9.99693 3.34159 10.6437 3.30754 11.3927L3.25648 12.7374L2.08201 13.0267C0.669245 13.3842 0.379883 13.6054 1.00967 13.8437L1.46924 14.031V16.5842V19.1374L1.02669 19.3076C0.788394 19.4097 0.618181 19.5799 0.669245 19.6991C0.771373 20.0054 24.465 20.0054 24.5841 19.682C24.6182 19.5629 24.499 19.4097 24.2948 19.3586C23.9544 19.2735 23.9373 19.1884 23.9033 13.7076L23.8522 8.15863L22.9671 8.10756L22.082 8.0565L22.0309 5.46927L21.9799 2.88203L20.9246 2.83097L19.8522 2.7799V5.43522V8.07352H19.4267H19.0012V5.43522V2.7799L17.9458 2.83097L16.8735 2.88203L16.8224 5.46927L16.7714 8.07352H16.3629C15.9714 8.07352 15.9544 8.00544 15.9033 6.91607L15.8522 5.77565H13.2139H10.5756L10.4905 6.88203L10.4054 7.98842L9.69052 8.03948L8.95861 8.09054V9.77565C8.95861 11.5629 8.90754 11.648 8.00542 11.648C7.63095 11.648 7.59691 11.5799 7.59691 10.8139C7.59691 10.3544 7.52882 9.94586 7.44371 9.91182C7.20542 9.82671 6.86499 0.924585 7.10329 0.652245C7.46073 0.209692 7.06925 0.0735207 5.36712 0.0735207C3.80116 0.0735207 3.68201 0.0905418 3.68201 0.413946ZM6.2352 0.907564C6.2352 0.99267 6.28627 1.1799 6.33733 1.3331C6.42244 1.55437 6.30329 1.60544 5.60542 1.60544C4.65222 1.60544 4.53307 1.55437 4.65222 1.07778C4.72031 0.822458 4.89052 0.754372 5.48627 0.754372C5.89478 0.754372 6.2352 0.822458 6.2352 0.907564ZM18.3203 3.8182C18.3203 4.20969 18.2522 4.32884 17.9799 4.32884C17.5884 4.32884 17.3841 3.95437 17.5373 3.56288C17.5884 3.42671 17.7927 3.30756 17.9799 3.30756C18.2522 3.30756 18.3203 3.42671 18.3203 3.8182ZM21.299 3.8182C21.299 4.12459 21.1969 4.26076 20.9246 4.2948C20.5841 4.34586 20.5331 4.27778 20.5331 3.8182C20.5331 3.35863 20.5841 3.29054 20.9246 3.34161C21.1969 3.37565 21.299 3.51182 21.299 3.8182ZM18.3203 6.4565C18.3203 8.07352 18.3203 8.07352 17.8948 8.07352C17.4692 8.07352 17.4692 8.07352 17.4692 6.4565C17.4692 4.83948 17.4692 4.83948 17.8948 4.83948C18.3203 4.83948 18.3203 4.83948 18.3203 6.4565ZM21.3841 6.4565C21.3841 8.07352 21.3841 8.07352 20.9586 8.07352C20.5331 8.07352 20.5331 8.07352 20.5331 6.4565C20.5331 4.83948 20.5331 4.83948 20.9586 4.83948C21.3841 4.83948 21.3841 4.83948 21.3841 6.4565ZM15.2565 7.22246C15.2565 7.95437 15.2054 8.07352 14.9161 8.07352C14.7288 8.07352 14.5756 8.19267 14.5756 8.32884C14.5756 8.55012 15.1714 8.58416 18.9161 8.58416H23.2565L23.2224 11.682L23.1714 14.7969H16.3629H9.55435V11.7331V8.66927L11.5969 8.58416C13.9118 8.48203 14.3373 8.20969 12.3629 8.07352L11.0863 7.98842L11.0352 7.42671C10.9331 6.38842 10.9671 6.37139 13.2139 6.37139H15.2565V7.22246ZM7.00116 11.2054V11.8863L5.80967 12.1927C3.90329 12.6693 3.85222 12.6522 3.85222 11.5969C3.85222 11.0863 3.90329 10.6267 3.97137 10.5586C4.03946 10.4905 4.75435 10.4735 5.55435 10.4905L7.00116 10.5416V11.2054ZM8.95861 15.7331V19.3076H8.27776H7.59691V17.4352C7.59691 15.9203 7.64797 15.5288 7.85222 15.4608C7.98839 15.3927 8.10754 15.2565 8.10754 15.1203C8.10754 14.9331 7.61393 14.882 5.46925 14.882C3.32456 14.882 2.83095 14.9331 2.83095 15.1203C2.83095 15.2565 2.9501 15.3927 3.08627 15.4608C3.29052 15.5288 3.34159 15.9203 3.34159 17.4352V19.3076H2.66073H1.97988V16.4991C1.97988 13.7416 1.97988 13.6905 2.37137 13.6054C4.99265 12.9927 8.58414 12.1757 8.75435 12.1757C8.90754 12.1586 8.95861 12.9757 8.95861 15.7331ZM7.08627 15.8182C7.08627 16.2437 7.08627 16.2437 5.46925 16.2437C4.02244 16.2437 3.85222 16.2097 3.85222 15.9374C3.85222 15.4437 3.98839 15.3927 5.58839 15.3927C7.06925 15.3927 7.08627 15.3927 7.08627 15.8182ZM10.865 16.8735L10.9161 18.3714L13.4352 18.4225L15.9373 18.4735V16.9246C15.9373 15.4097 15.9373 15.3927 16.3629 15.3927C16.7714 15.3927 16.7714 15.4267 16.8224 16.8735L16.8735 18.3714L19.3246 18.4225C21.1799 18.4565 21.8097 18.4054 21.9288 18.2522C21.9969 18.1331 22.065 17.4352 22.065 16.7033V15.3927H22.6607H23.2565V17.3501V19.3076L16.4139 19.2735L9.55435 19.2225L9.50329 17.5374C9.48627 16.6012 9.50329 15.7331 9.53733 15.6139C9.58839 15.4948 9.89478 15.3927 10.2182 15.3927H10.8139L10.865 16.8735ZM13.0437 16.5842V17.7757H12.2778H11.5118V16.5842V15.3927H12.2778H13.0437V16.5842ZM15.2565 16.5842V17.7757H14.4905H13.7246V16.5842V15.3927H14.4905H15.2565V16.5842ZM19.1373 16.6182L19.1884 17.7757H18.3203H17.4692V16.5671V15.3757L18.2863 15.4267L19.0863 15.4778L19.1373 16.6182ZM21.3841 16.5842V17.7757H20.5331H19.682V16.7033C19.682 16.1076 19.7331 15.5629 19.8012 15.5118C19.8522 15.4437 20.2437 15.3927 20.6522 15.3927H21.3841V16.5842ZM7.08627 17.3501C7.08627 17.7757 7.08627 17.7757 5.46925 17.7757C3.85222 17.7757 3.85222 17.7757 3.85222 17.3501C3.85222 16.9246 3.85222 16.9246 5.46925 16.9246C7.08627 16.9246 7.08627 16.9246 7.08627 17.3501ZM7.08627 18.882C7.08627 19.3076 7.08627 19.3076 5.46925 19.3076C3.85222 19.3076 3.85222 19.3076 3.85222 18.882C3.85222 18.4565 3.85222 18.4565 5.46925 18.4565C7.08627 18.4565 7.08627 18.4565 7.08627 18.882Z" fill="#8A8A8A"/>
</svg>
