<svg width="13" height="13" viewBox="0 0 13 13" fill="none" xmlns="http://www.w3.org/2000/svg">
<path fill-rule="evenodd" clip-rule="evenodd" d="M6.495 1.35645C3.735 1.35645 1.5 3.59645 1.5 6.35645C1.5 9.11645 3.735 11.3564 6.495 11.3564C9.26 11.3564 11.5 9.11645 11.5 6.35645C11.5 3.59645 9.26 1.35645 6.495 1.35645ZM6.5 10.3564C4.29 10.3564 2.5 8.56645 2.5 6.35645C2.5 4.14645 4.29 2.35645 6.5 2.35645C8.71 2.35645 10.5 4.14645 10.5 6.35645C10.5 8.56645 8.71 10.3564 6.5 10.3564ZM6 6.89145L8.745 8.53645L9.255 7.67645L7 6.32145V3.56645H6V6.89145Z" fill="#002E6A"/>
</svg>
