<svg width="25" height="24" viewBox="0 0 25 24" fill="none" xmlns="http://www.w3.org/2000/svg">
<g clip-path="url(#clip0_1945_382)">
<path d="M6.17181 0C4.2979 0.000365521 2.77344 1.52508 2.77344 3.39886V20.6013C2.77344 22.4752 4.2979 23.9999 6.17193 24.0001H22.2134C22.634 24.0001 22.9749 23.6592 22.9749 23.2386V20.6013V17.9639V6.03622V0.761502C22.9749 0.340909 22.634 0 22.2134 0H6.17181ZM6.17193 1.523H21.4519V6.03622V17.2023H6.17181C5.4789 17.2024 4.83425 17.4114 4.29644 17.7687V3.39886C4.29644 2.36468 5.13787 1.52313 6.17193 1.523ZM21.4519 22.477H6.17205C5.13787 22.4769 4.29644 21.6353 4.29644 20.6011C4.29644 19.567 5.13775 18.7254 6.17193 18.7253H21.4519V19.8396H9.46162C9.04103 19.8396 8.70012 20.1805 8.70012 20.6011C8.70012 21.0217 9.04103 21.3626 9.46162 21.3626H21.4519V22.477Z" fill="#8A8A8A"/>
<path d="M9.82857 10.6853V13.5685C9.82857 13.9891 10.1695 14.33 10.5901 14.33H15.1574C15.578 14.33 15.9189 13.9891 15.9189 13.5685V10.6854C16.925 10.2815 17.6225 9.29481 17.6225 8.16706C17.6225 6.71289 16.4727 5.52239 15.0346 5.45684C14.5276 4.78599 13.7377 4.38574 12.8739 4.38574C12.0096 4.38574 11.2199 4.78599 10.713 5.45684C9.27481 5.52239 8.125 6.71302 8.125 8.16706C8.125 9.29493 8.82254 10.2815 9.82857 10.6853ZM10.8381 6.97704C10.8958 6.97704 10.9544 6.98131 11.0127 6.98984C11.34 7.03821 11.6601 6.8697 11.8062 6.57339C12.0085 6.16352 12.4178 5.90875 12.8741 5.90875C13.3303 5.90875 13.7395 6.16351 13.9421 6.57363C14.0884 6.86995 14.4099 7.03796 14.7357 6.98984C14.7937 6.98131 14.8522 6.97704 14.9098 6.97704C15.566 6.97704 16.0999 7.51095 16.0999 8.16718C16.0999 8.76481 15.6536 9.27215 15.0619 9.34721C14.6815 9.39545 14.3962 9.71918 14.3962 10.1026V12.807H11.3516V10.1529C11.3516 10.1521 11.3517 10.1511 11.3517 10.1504C11.3769 9.74916 11.0858 9.3974 10.6871 9.34708C10.0947 9.2724 9.648 8.76517 9.648 8.16706C9.648 7.51083 10.1819 6.97704 10.8381 6.97704Z" fill="#8A8A8A"/>
</g>
<defs>
<clipPath id="clip0_1945_382">
<rect width="24" height="24" fill="white" transform="translate(0.875)"/>
</clipPath>
</defs>
</svg>
