<svg width="24" height="24" viewBox="0 0 24 24" fill="none" xmlns="http://www.w3.org/2000/svg">
<g opacity="0.8">
<path d="M4.04079 6.06632L11.5301 2L19.0921 6.1058M2.80469 8.11064V16.487L10.2836 20.6066M20.2555 8.04198V16.487L12.7766 20.6066" stroke="white"/>
<path d="M4.04875 6.73766C4.04875 7.34495 3.51872 7.88547 2.80367 7.88547C2.08863 7.88547 1.55859 7.34495 1.55859 6.73766C1.55859 6.13037 2.08863 5.58984 2.80367 5.58984C3.51872 5.58984 4.04875 6.13037 4.04875 6.73766Z" stroke="white"/>
<path d="M21.498 6.73766C21.498 7.34495 20.9679 7.88547 20.2529 7.88547C19.5378 7.88547 19.0078 7.34495 19.0078 6.73766C19.0078 6.13037 19.5378 5.58984 20.2529 5.58984C20.9679 5.58984 21.498 6.13037 21.498 6.73766Z" stroke="white"/>
<path d="M12.7753 21.2933C12.7753 21.9006 12.2453 22.4411 11.5302 22.4411C10.8152 22.4411 10.2852 21.9006 10.2852 21.2933C10.2852 20.686 10.8152 20.1455 11.5302 20.1455C12.2453 20.1455 12.7753 20.686 12.7753 21.2933Z" stroke="white"/>
<path d="M5.78516 8.31621L11.5294 5.22656L17.3463 8.31621V14.6328L11.5294 17.9971L5.78516 14.6328V8.31621Z" stroke="white"/>
<path d="M5.78516 8.31641L11.4567 11.5434L17.419 8.31641" stroke="white"/>
<path d="M11.5273 18.2032V14.8389" stroke="white"/>
<ellipse cx="11.5309" cy="13.4663" rx="0.581693" ry="0.549271" fill="white"/>
</g>
</svg>
