<svg width="12" height="13" viewBox="0 0 12 13" fill="none" xmlns="http://www.w3.org/2000/svg">
<path d="M4.5 7.23145C3.33 7.23145 1 7.81645 1 8.98145V9.85645H8V8.98145C8 7.81645 5.67 7.23145 4.5 7.23145ZM2.17 8.85645C2.59 8.56645 3.605 8.23145 4.5 8.23145C5.395 8.23145 6.41 8.56645 6.83 8.85645H2.17ZM4.5 6.35645C5.465 6.35645 6.25 5.57145 6.25 4.60645C6.25 3.64145 5.465 2.85645 4.5 2.85645C3.535 2.85645 2.75 3.64145 2.75 4.60645C2.75 5.57145 3.535 6.35645 4.5 6.35645ZM4.5 3.85645C4.915 3.85645 5.25 4.19145 5.25 4.60645C5.25 5.02145 4.915 5.35645 4.5 5.35645C4.085 5.35645 3.75 5.02145 3.75 4.60645C3.75 4.19145 4.085 3.85645 4.5 3.85645ZM8.02 7.26145C8.6 7.68145 9 8.24145 9 8.98145V9.85645H11V8.98145C11 7.97145 9.25 7.39645 8.02 7.26145ZM7.5 6.35645C8.465 6.35645 9.25 5.57145 9.25 4.60645C9.25 3.64145 8.465 2.85645 7.5 2.85645C7.23 2.85645 6.98 2.92145 6.75 3.03145C7.065 3.47645 7.25 4.02145 7.25 4.60645C7.25 5.19145 7.065 5.73645 6.75 6.18145C6.98 6.29145 7.23 6.35645 7.5 6.35645Z" fill="#002E6A"/>
</svg>
