<svg width="37" height="36" viewBox="0 0 37 36" fill="none" xmlns="http://www.w3.org/2000/svg">
<path d="M15.4794 1.04586C14.1454 2.66756 13.9623 3.45225 14.6162 4.73391C15.1394 5.72786 15.1655 5.85864 14.7732 6.43408C14.25 7.24493 14.2762 7.58496 14.8778 7.58496C15.9241 7.58496 16.4733 5.96326 15.8456 4.6816C15.244 3.47841 15.3225 2.92912 16.2379 1.90902C16.9965 1.01971 17.1534 0.261171 16.6041 0.104232C16.4733 0.0519195 15.9502 0.470422 15.4794 1.04586Z" fill="#315CA7"/>
<path d="M18.987 1.15049C17.8361 2.56293 17.5484 3.6615 18.15 4.57698C18.6208 5.2832 18.6993 6.43408 18.3069 6.66949C17.8623 6.95721 18.0192 7.58496 18.5685 7.58496C19.5624 7.58496 20.0071 5.33551 19.2224 4.28926C18.6731 3.55688 18.7254 3.34763 19.7717 1.98749C20.6087 0.862768 20.7918 -0.000392728 20.1902 -0.000392728C20.0594 -0.000392728 19.5101 0.522735 18.987 1.15049Z" fill="#315CA7"/>
<path d="M22.4921 1.33358C21.3412 2.79834 21.2366 3.45225 21.8905 4.81238C22.2305 5.57092 22.2567 5.85864 22.0212 6.40792C21.6027 7.34955 21.6289 7.58496 22.1782 7.58496C23.146 7.58496 23.6168 5.30935 22.8844 4.34157C22.309 3.58303 22.3874 3.19069 23.4337 1.90902C24.2969 0.862768 24.4799 -0.000392728 23.826 -0.000392728C23.6691 -0.000392728 23.0675 0.601204 22.4921 1.33358Z" fill="#315CA7"/>
<path d="M13.99 9.05011C6.8755 10.0441 3.03051 11.5088 1.9581 13.6013C1.46112 14.543 1.46112 15.3276 1.93194 17.5771C2.48122 20.0358 3.55364 22.076 5.35843 24.0116L6.92781 25.7117L5.41074 28.6151C4.57373 30.2106 3.91983 31.8323 3.91983 32.1985C3.91983 33.5587 5.75077 34.2649 6.71856 33.2709C6.98012 33.0094 7.81713 31.5708 8.60182 30.0537L10.0404 27.3073L12.0022 27.8827C13.1007 28.1966 14.7224 28.5366 15.6379 28.6412L17.2596 28.8243V31.8585C17.2596 33.5587 17.3642 35.0496 17.4688 35.2065C17.8089 35.7296 18.829 36.122 19.3521 35.965C20.5291 35.5988 20.6599 35.1803 20.6599 31.9108V28.8243L22.177 28.6674C22.9878 28.5628 24.5311 28.2489 25.5773 27.9612C26.6236 27.6996 27.5652 27.4642 27.696 27.4642C27.8268 27.4642 28.6115 28.7197 29.4223 30.2629C30.2332 31.8323 31.044 33.2448 31.1748 33.4017C31.5933 33.8987 33.058 33.8202 33.555 33.2709C34.2612 32.4862 34.0781 31.7539 32.5088 28.6412L31.0178 25.6856L32.5611 24.0116C33.4242 23.0961 34.4705 21.6575 34.8628 20.8205C35.5952 19.3034 36.3538 16.4785 36.3538 15.0922C36.3538 13.3398 34.9413 11.9535 32.0118 10.8287C28.6899 9.57324 25.7343 9.12858 20.006 9.02395C17.1288 8.97164 14.4347 8.9978 13.99 9.05011ZM27.539 10.7241C31.8287 11.6396 34.7582 13.0259 35.1767 14.4122C35.8045 16.4001 30.7301 18.6233 23.8772 19.3819C18.2535 19.9835 10.4328 19.2773 6.43084 17.7602C4.67836 17.1324 2.97819 15.9031 2.74279 15.1445C2.14119 13.2874 7.03244 10.9857 13.2838 10.2271C16.6057 9.80864 24.5572 10.0964 27.539 10.7241ZM4.05061 17.891C4.99224 18.5187 8.18332 19.5388 10.8513 20.0358C14.5655 20.742 23.354 20.742 27.0682 20.0358C29.7362 19.5388 32.9273 18.5187 33.8689 17.891C35.0982 17.0278 35.0982 17.891 33.8689 20.3235C32.7965 22.4683 30.5993 24.6916 28.533 25.7379C27.0421 26.4964 24.2433 27.2811 22.0462 27.5688L20.6599 27.7519V26.7841C20.6599 25.5809 20.0322 24.8486 19.0121 24.8486C17.8873 24.8486 17.2596 25.5025 17.2596 26.7318V27.7258L16.161 27.5688C9.7527 26.7057 5.8554 24.2993 3.89367 20.0096C2.84741 17.6817 2.89973 17.0801 4.05061 17.891ZM19.5613 30.3153C19.6398 34.6834 19.5352 35.2065 18.6459 34.8665C18.3843 34.7618 18.3058 33.7941 18.3058 30.4984C18.3058 28.1443 18.3843 26.1564 18.4889 26.0518C18.5936 25.9471 18.8551 25.921 19.0905 25.9471C19.4306 26.0256 19.4829 26.7057 19.5613 30.3153ZM8.88954 26.9149C8.88954 27.4904 5.93387 32.6955 5.59383 32.6955C4.78299 32.6955 4.96608 31.8585 6.40468 29.0598C7.73866 26.4441 7.94791 26.1825 8.39257 26.418C8.65413 26.5749 8.88954 26.7841 8.88954 26.9149ZM32.1687 30.3153C32.8226 31.7015 32.9796 32.2508 32.7703 32.4601C32.221 33.0094 31.8025 32.5124 30.3378 29.6875C28.9515 26.9934 28.9253 26.8888 29.3962 26.5226C29.867 26.1825 29.9716 26.261 30.5993 27.3073C30.9655 27.9612 31.6718 29.2952 32.1687 30.3153Z" fill="#315CA7"/>
<path d="M13.7532 14.0982C11.556 16.2954 10.6929 17.3416 10.7975 17.6293C10.9021 17.8648 11.0591 18.0479 11.1898 18.0479C11.6083 18.0479 17.8336 11.5349 17.6505 11.2733C17.3104 10.6979 16.7611 11.0641 13.7532 14.0982Z" fill="#315CA7"/>
<path d="M16.9203 14.517C13.8338 17.7081 13.2846 18.5713 14.2262 18.5713C14.697 18.5713 21.1838 11.8753 21.1838 11.3783C21.1838 10.4367 20.0591 11.2475 16.9203 14.517Z" fill="#315CA7"/>
<path d="M10.1172 14.0726C7.58005 16.6098 7.16155 17.2637 8.05086 17.2637C8.65246 17.2637 13.7268 12.1893 13.4914 11.797C13.1252 11.2215 12.6282 11.5616 10.1172 14.0726Z" fill="#315CA7"/>
<path d="M20.3181 14.5955C17.5193 17.3943 16.7085 18.5713 17.5978 18.5713C17.7809 18.5713 19.3764 17.1065 21.1551 15.3279C24.1107 12.3722 24.6862 11.5091 23.7184 11.5091C23.5353 11.5091 22.0182 12.8954 20.3181 14.5955Z" fill="#315CA7"/>
<path d="M6.84862 13.6801C5.22692 15.328 4.96535 15.7727 5.51464 16.1127C5.90698 16.3481 9.41194 12.8431 9.22885 12.3985C8.99344 11.7446 8.49647 12.0061 6.84862 13.6801Z" fill="#315CA7"/>
<path d="M23.7218 14.8571C21.1584 17.4204 20.3999 18.5713 21.2631 18.5713C21.76 18.5713 27.2006 13 27.2006 12.4768C27.2006 11.5875 26.4943 12.0845 23.7218 14.8571Z" fill="#315CA7"/>
<path d="M27.6181 14.6214C25.8133 16.4262 25.0809 17.3416 25.1855 17.6293C25.2902 17.8648 25.4471 18.0479 25.5517 18.0479C25.6825 18.0479 26.938 16.8708 28.3505 15.4584C30.1552 13.6536 30.8876 12.7381 30.783 12.4504C30.6784 12.215 30.5214 12.0319 30.4168 12.0319C30.286 12.0319 29.0305 13.2089 27.6181 14.6214Z" fill="#315CA7"/>
<path d="M30.6496 15.2496C29.2371 16.6882 28.9755 17.2637 29.7602 17.2637C30.4403 17.2637 32.7944 14.7788 32.6113 14.2818C32.3497 13.6279 32.1143 13.7587 30.6496 15.2496Z" fill="#315CA7"/>
</svg>
