<svg width="24" height="25" viewBox="0 0 24 25" fill="none" xmlns="http://www.w3.org/2000/svg">
<g clip-path="url(#clip0_1363_31843)">
<path d="M5.29681 0.356445C3.4229 0.356811 1.89844 1.88152 1.89844 3.75531V20.9577C1.89844 22.8316 3.4229 24.3563 5.29693 24.3566H21.3384C21.759 24.3566 22.0999 24.0157 22.0999 23.5951V20.9577V18.3204V6.39266V1.11795C22.0999 0.697355 21.759 0.356445 21.3384 0.356445H5.29681ZM5.29693 1.87945H20.5769V6.39266V17.5587H5.29681C4.6039 17.5588 3.95925 17.7678 3.42144 18.1252V3.75531C3.42144 2.72112 4.26287 1.87957 5.29693 1.87945ZM20.5769 22.8334H5.29705C4.26287 22.8333 3.42144 21.9918 3.42144 20.9576C3.42144 19.9234 4.26275 19.0819 5.29693 19.0817H20.5769V20.1961H8.58662C8.16603 20.1961 7.82512 20.537 7.82512 20.9576C7.82512 21.3782 8.16603 21.7191 8.58662 21.7191H20.5769V22.8334Z" fill="#006E07"/>
<path d="M8.95357 11.0417V13.9249C8.95357 14.3455 9.29448 14.6864 9.71508 14.6864H14.2824C14.703 14.6864 15.0439 14.3455 15.0439 13.9249V11.0418C16.05 10.6379 16.7475 9.65126 16.7475 8.5235C16.7475 7.06934 15.5977 5.87884 14.1596 5.81329C13.6526 5.14243 12.8627 4.74219 11.9989 4.74219C11.1346 4.74219 10.3449 5.14243 9.83801 5.81329C8.39981 5.87884 7.25 7.06946 7.25 8.5235C7.25 9.65138 7.94754 10.6379 8.95357 11.0417ZM9.96314 7.33349C10.0208 7.33349 10.0794 7.33775 10.1377 7.34628C10.465 7.39465 10.7851 7.22615 10.9312 6.92983C11.1335 6.51996 11.5428 6.26519 11.9991 6.26519C12.4553 6.26519 12.8645 6.51996 13.0671 6.93008C13.2134 7.22639 13.5349 7.39441 13.8607 7.34628C13.9187 7.33775 13.9772 7.33349 14.0348 7.33349C14.691 7.33349 15.2249 7.86739 15.2249 8.52363C15.2249 9.12125 14.7786 9.6286 14.1869 9.70365C13.8065 9.7519 13.5212 10.0756 13.5212 10.4591V13.1634H10.4766V10.5094C10.4766 10.5085 10.4767 10.5076 10.4767 10.5068C10.5019 10.1056 10.2108 9.75385 9.81206 9.70353C9.21967 9.62884 8.773 9.12162 8.773 8.5235C8.773 7.86727 9.30691 7.33349 9.96314 7.33349Z" fill="#006E07"/>
</g>
<defs>
<clipPath id="clip0_1363_31843">
<rect width="24" height="24" fill="white" transform="translate(0 0.356445)"/>
</clipPath>
</defs>
</svg>
