<svg width="79" height="78" viewBox="0 0 79 78" fill="none" xmlns="http://www.w3.org/2000/svg">
<g filter="url(#filter0_dd_1932_30502)">
<rect x="11.9688" y="7" width="56" height="56" rx="28" fill="white"/>
<g clip-path="url(#clip0_1932_30502)">
<path d="M35.0239 19C35.0239 19 34.9834 19.0389 34.9131 19.1146C34.878 19.1524 34.8359 19.1999 34.7876 19.2557C34.7399 19.312 34.6864 19.3777 34.6294 19.4519C34.5156 19.6005 34.3875 19.7858 34.2697 20.0058C34.2625 20.0195 34.255 20.0333 34.2476 20.0472C34.2405 20.0613 34.2335 20.0755 34.2262 20.0898C34.2115 20.1179 34.1977 20.1472 34.184 20.1768C34.1564 20.2358 34.1303 20.2971 34.1052 20.3599C34.0563 20.486 34.0139 20.6196 33.9819 20.7588C33.9495 20.8979 33.9297 21.0433 33.9218 21.192C33.9177 21.2664 33.9181 21.3419 33.9204 21.418C33.9226 21.4561 33.9251 21.4944 33.9281 21.5327C33.93 21.5519 33.9321 21.5712 33.934 21.5905L33.9368 21.6194L33.9411 21.6486C33.9825 21.9584 34.0824 22.2772 34.2356 22.5954C34.3883 22.9138 34.5927 23.2305 34.8272 23.5411C34.8576 23.5795 34.888 23.6178 34.9177 23.6567L34.9402 23.6859L34.9638 23.7145L35.0108 23.7719L35.0578 23.8294C35.0737 23.8484 35.0904 23.8672 35.1067 23.886C35.1392 23.9238 35.1709 23.9625 35.2041 24.0001C35.2377 24.0376 35.2712 24.0753 35.3049 24.1128C35.338 24.1506 35.3736 24.1871 35.4078 24.2247C35.4815 24.3049 35.5554 24.3851 35.6292 24.4655L35.6429 24.4805C35.6475 24.4854 35.6519 24.4905 35.657 24.4965L35.6867 24.5313L35.7462 24.6011L35.8056 24.6709C35.8255 24.6941 35.8431 24.7172 35.8618 24.7403C35.8986 24.7869 35.9361 24.8324 35.972 24.8797C36.0073 24.9277 36.0426 24.9758 36.0779 25.0237C36.0958 25.0475 36.1127 25.072 36.1297 25.0969L36.1804 25.1709C36.1974 25.1956 36.2141 25.2203 36.2304 25.2453L36.2782 25.3219C36.3099 25.373 36.3423 25.4231 36.3718 25.4761C36.4015 25.5288 36.4327 25.5799 36.4604 25.6341C36.4881 25.688 36.5161 25.7417 36.5431 25.7958C36.5688 25.851 36.5944 25.9061 36.6199 25.961C36.6434 26.0172 36.6662 26.0738 36.689 26.13C36.711 26.1868 36.7308 26.2449 36.7515 26.3018C36.8291 26.5332 36.8867 26.7719 36.9161 27.0131C36.9193 27.0433 36.9224 27.0735 36.9254 27.1038C36.9281 27.134 36.9322 27.1637 36.9333 27.194C36.9348 27.2242 36.9362 27.2542 36.9376 27.2845C36.939 27.3145 36.9405 27.3444 36.94 27.3745C36.9397 27.4346 36.9409 27.4941 36.937 27.5536C36.9352 27.5832 36.9335 27.6128 36.9318 27.6424C36.9297 27.6718 36.9261 27.7013 36.923 27.7305C36.9197 27.7598 36.9174 27.7889 36.9131 27.8179C36.9086 27.8467 36.9042 27.8755 36.8998 27.9043C36.8955 27.9329 36.8908 27.9614 36.8844 27.9896C36.8786 28.0177 36.8726 28.0457 36.8667 28.0738C36.8613 28.1018 36.8533 28.1291 36.8465 28.1567C36.8393 28.184 36.8322 28.2113 36.8251 28.2385C36.8167 28.2652 36.8085 28.292 36.8003 28.3185C36.7916 28.345 36.784 28.3716 36.7741 28.3973C36.7014 28.6053 36.6086 28.7964 36.5051 28.9686C36.4018 29.1412 36.2865 29.2942 36.1683 29.4308C35.9309 29.7039 35.6811 29.9104 35.45 30.0709C35.2185 30.2311 35.0046 30.3456 34.8252 30.4293C34.7354 30.4712 34.6539 30.5049 34.5824 30.5324C34.5112 30.5604 34.4497 30.5813 34.3995 30.5975C34.2992 30.6297 34.2443 30.6415 34.2443 30.6415C34.2443 30.6415 34.2865 30.6044 34.3623 30.534C34.4001 30.4986 34.446 30.4544 34.4993 30.4027C34.5522 30.3503 34.612 30.2899 34.6774 30.2215C34.8076 30.0845 34.9598 29.915 35.1155 29.7132C35.2709 29.5116 35.4301 29.2771 35.5643 29.0135C35.6991 28.7507 35.8048 28.4576 35.8526 28.1516C35.9005 27.8451 35.8866 27.5266 35.808 27.2052C35.7282 26.8837 35.5834 26.5588 35.3891 26.2406C35.3393 26.1616 35.2904 26.0814 35.235 26.0034L35.1946 25.9444L35.1519 25.886L35.1095 25.8273C35.0956 25.8076 35.0813 25.788 35.066 25.769C35.0361 25.7304 35.0062 25.692 34.9761 25.6534L34.8826 25.5388C34.8671 25.52 34.8516 25.4999 34.8359 25.482L34.7891 25.428L34.7424 25.3739L34.7191 25.3469C34.7155 25.3426 34.7107 25.3375 34.7062 25.3325L34.6925 25.3173C34.6199 25.2369 34.5473 25.1565 34.4747 25.0761C34.396 24.9916 34.3223 24.9014 34.2471 24.8133C34.1737 24.7228 34.1 24.6334 34.0311 24.5391L33.9787 24.4691L33.9526 24.4342L33.9273 24.3984C33.8935 24.3508 33.8604 24.3028 33.8273 24.2549C33.5669 23.8675 33.3445 23.451 33.1944 23.0116C33.1763 22.9562 33.1575 22.9018 33.1414 22.8463C33.126 22.7902 33.1097 22.7352 33.0958 22.6793C33.0891 22.6513 33.0825 22.6233 33.0758 22.5953C33.0694 22.5673 33.0622 22.5397 33.0575 22.5113C33.0523 22.4831 33.047 22.4549 33.0417 22.4269L33.0339 22.385C33.0315 22.3709 33.0296 22.3567 33.0276 22.3426C33.0102 22.2301 32.9974 22.1177 32.9923 22.0057C32.9909 21.9777 32.9894 21.9498 32.988 21.9222C32.9877 21.8943 32.9874 21.8665 32.9871 21.8388C32.9858 21.7835 32.9888 21.7282 32.991 21.6736C33.0008 21.4549 33.0357 21.2433 33.0893 21.046C33.1428 20.8485 33.214 20.665 33.2986 20.4998C33.3827 20.3342 33.4778 20.1858 33.5771 20.0545C33.6026 20.022 33.6273 19.9899 33.6526 19.9591C33.6784 19.9285 33.7033 19.8983 33.7294 19.8698C33.7552 19.8412 33.7805 19.813 33.8064 19.7863C33.8194 19.773 33.8322 19.7597 33.8449 19.7466C33.8579 19.7337 33.8708 19.7211 33.8838 19.7086C34.0897 19.5084 34.2905 19.366 34.4612 19.2624C34.5467 19.2105 34.625 19.1687 34.6941 19.1348C34.763 19.1005 34.8229 19.0745 34.8718 19.0546C34.9696 19.0149 35.0241 19.0003 35.0241 19.0003L35.0239 19ZM30.8309 22.7929C30.7957 22.8034 30.7521 22.8175 30.7023 22.8372C30.6521 22.8565 30.595 22.8811 30.5327 22.9124C30.408 22.9752 30.2603 23.0646 30.1069 23.1969C30.0681 23.2297 30.0298 23.2657 29.9913 23.3043C29.9717 23.3235 29.9529 23.3439 29.9336 23.3645C29.9144 23.3854 29.8958 23.4072 29.8766 23.4294C29.8013 23.5191 29.7284 23.6218 29.6632 23.7381C29.5975 23.8541 29.541 23.9844 29.4975 24.1259C29.4538 24.2672 29.4236 24.4199 29.412 24.5782C29.4093 24.6177 29.406 24.6577 29.4057 24.6978C29.4054 24.7179 29.4051 24.738 29.4048 24.7582C29.4052 24.7783 29.4057 24.7986 29.4062 24.8188C29.4078 24.9 29.4149 24.9815 29.4255 25.063C29.4301 25.1041 29.4377 25.1442 29.444 25.1851C29.4506 25.2261 29.4605 25.2658 29.4688 25.3067C29.4779 25.3472 29.4888 25.3869 29.4989 25.4274C29.5095 25.4676 29.5223 25.5067 29.5345 25.5467C29.6358 25.8635 29.789 26.1615 29.9695 26.4358C30.0148 26.5039 30.0619 26.5715 30.1107 26.6366C30.1584 26.7034 30.2094 26.7662 30.2605 26.8297C30.3127 26.8914 30.3637 26.9549 30.4184 27.0137C30.4673 27.0682 30.5164 27.1224 30.5653 27.1769L30.583 27.1966L30.5977 27.2137L30.6271 27.2478L30.6567 27.2816C30.6665 27.2929 30.6768 27.306 30.6868 27.318L30.7472 27.3916L30.8055 27.4653C30.8252 27.4897 30.8423 27.5149 30.861 27.5395L30.8887 27.5764L30.9148 27.6134C30.9509 27.6625 30.9821 27.7128 31.0145 27.7619C31.1403 27.96 31.2348 28.156 31.2919 28.3475C31.3481 28.5388 31.3686 28.7273 31.3522 28.917C31.3357 29.1062 31.2833 29.296 31.2085 29.4724C31.1344 29.6492 31.0414 29.8123 30.9485 29.9553C30.8555 30.0985 30.7624 30.2221 30.6824 30.3234C30.6422 30.374 30.6051 30.4193 30.5724 30.4587C30.5393 30.4976 30.5107 30.5312 30.4871 30.5582C30.4398 30.6122 30.4132 30.6411 30.4132 30.6411C30.4132 30.6411 30.4524 30.6373 30.5243 30.6217C30.5602 30.6139 30.6044 30.6035 30.6555 30.5884C30.7069 30.5739 30.7656 30.5554 30.8302 30.5313C30.9596 30.4834 31.1142 30.4149 31.283 30.3131C31.4515 30.2112 31.6353 30.0761 31.8125 29.8898C31.9008 29.7966 31.9877 29.6908 32.0663 29.5694C32.1451 29.4484 32.2166 29.3124 32.2737 29.1629C32.2881 29.1256 32.3011 29.0871 32.3141 29.0483C32.3253 29.0091 32.3375 28.9695 32.3475 28.9292C32.3677 28.8483 32.3844 28.7649 32.3945 28.6796C32.4065 28.5944 32.4114 28.5075 32.4122 28.4198C32.413 28.3978 32.4124 28.376 32.4117 28.354C32.4111 28.332 32.4105 28.31 32.4098 28.2878C32.4079 28.2439 32.4032 28.2 32.3995 28.1557C32.3812 27.9796 32.3419 27.8055 32.2885 27.6377C32.2742 27.5964 32.2603 27.5543 32.2451 27.5131C32.2293 27.4725 32.2135 27.4316 32.197 27.391C32.1791 27.3514 32.1612 27.3117 32.1432 27.272C32.1244 27.233 32.1047 27.1946 32.0853 27.1558C32.066 27.1169 32.0441 27.0803 32.0233 27.0427C32.0025 27.0047 31.9799 26.9689 31.9576 26.9324L31.924 26.8778C31.9127 26.8599 31.9009 26.8424 31.8891 26.8248C31.8652 26.79 31.8419 26.7539 31.8171 26.7204C31.7924 26.6863 31.7675 26.6525 31.7429 26.6185C31.7179 26.5849 31.6914 26.5529 31.6655 26.5202C31.6522 26.5039 31.64 26.4877 31.6259 26.4711L31.5838 26.4213L31.5416 26.3716L31.5204 26.3468C31.5166 26.3423 31.5137 26.339 31.5106 26.3357L31.5012 26.3256C31.4511 26.2713 31.4009 26.217 31.3509 26.1627C31.3052 26.1142 31.2612 26.0657 31.217 26.017C31.1957 25.9925 31.1745 25.9678 31.1531 25.9433L31.1208 25.9069L31.09 25.87C31.0697 25.8453 31.0479 25.8211 31.0287 25.7963C31.0093 25.7714 30.9892 25.7469 30.9691 25.7225C30.8148 25.5249 30.6792 25.3268 30.5756 25.131C30.4716 24.9351 30.3999 24.7426 30.3616 24.5538C30.3588 24.5419 30.3567 24.5302 30.355 24.5183C30.3529 24.5065 30.351 24.4948 30.349 24.4831C30.3456 24.4595 30.3425 24.4359 30.3391 24.4126C30.3344 24.3658 30.3308 24.3191 30.3297 24.2728C30.3276 24.18 30.3327 24.0878 30.3461 23.9979C30.3594 23.908 30.3795 23.82 30.4043 23.7355C30.4173 23.6935 30.4311 23.6523 30.4458 23.612C30.4532 23.5919 30.4607 23.5719 30.4687 23.5526C30.4765 23.533 30.4843 23.5137 30.4926 23.4947C30.558 23.3426 30.633 23.2105 30.7007 23.1026C30.7347 23.0486 30.7667 23.0005 30.7957 22.9588C30.8249 22.9175 30.8506 22.8819 30.8721 22.8534C30.9151 22.7964 30.9403 22.766 30.9403 22.766C30.9403 22.766 30.9014 22.7719 30.8306 22.7931L30.8309 22.7929ZM64.5071 35.5889C64.4875 35.1806 64.3119 34.8206 64.0331 34.5692C63.9634 34.5064 63.8876 34.4504 63.8065 34.4019C63.7256 34.3548 63.6397 34.3163 63.5497 34.2861C63.4596 34.2561 63.3658 34.2347 63.2691 34.2231C63.2208 34.2173 63.1718 34.2138 63.1223 34.213C63.0729 34.213 63.0232 34.2157 62.973 34.2209C62.9229 34.2261 62.7564 34.2462 62.4885 34.2798C62.355 34.2978 62.1966 34.3219 62.0146 34.3485C61.9692 34.3551 61.9222 34.3621 61.8738 34.3692C61.8496 34.3728 61.825 34.3765 61.8002 34.3801C61.7754 34.3842 61.7504 34.3885 61.7249 34.3926C61.623 34.4097 61.5155 34.4279 61.4027 34.4469C61.3464 34.4564 61.2886 34.4662 61.2296 34.4762C61.2 34.4812 61.1703 34.4863 61.14 34.4913C61.11 34.497 61.0796 34.5027 61.049 34.5084C60.9264 34.5315 60.7987 34.5558 60.6661 34.5808C60.5998 34.5934 60.5324 34.6062 60.4637 34.6194C60.3954 34.6336 60.3259 34.648 60.2553 34.6627C60.114 34.6922 59.9683 34.7227 59.818 34.754C59.2194 34.8869 58.5544 35.0466 57.8417 35.2392C57.1297 35.4336 56.3697 35.6606 55.5785 35.9199C54.7872 36.1791 53.9645 36.471 53.126 36.7923C52.2873 37.1133 51.4327 37.4638 50.576 37.8376C49.7193 38.2112 48.8604 38.6082 48.0124 39.0209C47.8276 39.1107 47.6434 39.2014 47.4599 39.2927C46.788 37.8502 45.3677 36.5676 43.4338 35.5708L42.8335 36.4427C45.2517 37.6217 46.748 39.2525 46.748 41.0544C46.748 44.6509 40.7858 47.5666 33.4309 47.5666C26.0761 47.5666 20.1139 44.6511 20.1139 41.0545C20.1139 37.458 25.9804 34.5895 33.2531 34.5429L34.0289 33.4161C33.8305 33.4119 33.6311 33.4095 33.4308 33.4095C25.4436 33.4095 18.9688 36.8929 18.9688 41.1898C18.9688 45.4867 23.0907 50.9701 33.4308 51C43.659 50.9704 47.8026 45.5935 47.8912 41.3295C48.2132 41.196 48.5368 41.064 48.8612 40.9341C49.7131 40.5929 50.5708 40.2657 51.421 39.9597C52.2712 39.6535 53.114 39.3684 53.9354 39.1096C54.7568 38.8508 55.5568 38.6183 56.3209 38.4147C57.0851 38.211 57.8131 38.036 58.4904 37.8885C59.1679 37.7429 59.7945 37.6257 60.3555 37.5295C60.4958 37.5072 60.6321 37.4857 60.7639 37.4648C60.8299 37.4543 60.8946 37.4439 60.9584 37.4338C61.0221 37.4247 61.0848 37.4159 61.1464 37.4072C61.2693 37.3898 61.3878 37.3732 61.5016 37.357C61.5301 37.3531 61.5581 37.3491 61.5859 37.3451C61.6138 37.3418 61.6413 37.3383 61.6685 37.335C61.723 37.3284 61.7763 37.3219 61.8284 37.3156C61.9323 37.3027 62.0314 37.2906 62.1254 37.279C62.1488 37.2762 62.1721 37.2733 62.1948 37.2705C62.2176 37.2681 62.2401 37.2659 62.2624 37.2635C62.3067 37.2589 62.3497 37.2545 62.3914 37.2502C62.558 37.2333 62.7033 37.2171 62.8251 37.2054C63.0689 37.1849 63.2202 37.1714 63.2658 37.1667C63.3112 37.1619 63.3558 37.1545 63.3996 37.1448C63.4433 37.1361 63.4864 37.125 63.5283 37.1116C63.6122 37.0848 63.6925 37.0489 63.7685 37.0049C63.8444 36.9611 63.9163 36.9087 63.9831 36.8502C64.0498 36.7929 64.1116 36.7285 64.1677 36.6579C64.3918 36.3759 64.5271 35.997 64.5075 35.5887L64.5071 35.5889ZM32.1255 39.9057L34.1742 41.3164L36.2229 42.7271C36.6784 43.0407 37.3778 42.8155 37.7851 42.224L41.085 37.4317C41.381 37.0016 41.4504 36.4769 41.2608 36.099L40.1846 33.9543L43.5865 29.0137C43.9862 29.0385 44.4382 28.8021 44.735 28.3711L48.208 23.3275C48.6153 22.736 48.5761 22.0022 48.1207 21.6886L47.5353 21.2856C47.0798 20.9719 46.3804 21.1971 45.9731 21.7886L42.5001 26.8322C42.2032 27.2633 42.1436 27.7699 42.3094 28.1344L38.9075 33.075L36.52 32.8348C36.0996 32.7925 35.6339 33.0444 35.3378 33.4744L32.038 38.2667C31.6307 38.8582 31.6699 39.5919 32.1253 39.9056L32.1255 39.9057ZM39.1849 36.8128C39.3425 36.5839 39.6132 36.4967 39.7897 36.6182C39.9659 36.7396 39.9811 37.0236 39.8235 37.2526L36.8485 41.5731C36.6909 41.802 36.4202 41.8892 36.2437 41.7677C36.0675 41.6463 36.0523 41.3623 36.2099 41.1333L39.1849 36.8128ZM37.5702 35.7011C37.7278 35.4721 37.9986 35.3849 38.175 35.5064C38.3513 35.6278 38.3665 35.9118 38.2089 36.1408L35.2339 40.4613C35.0763 40.6903 34.8055 40.7775 34.6291 40.6559C34.4528 40.5346 34.4376 40.2505 34.5952 40.0216L37.5702 35.7011ZM35.9556 34.5893C36.1132 34.3603 36.3839 34.2731 36.5604 34.3947C36.7366 34.516 36.7518 34.8001 36.5942 35.029L33.6192 39.3495C33.4616 39.5785 33.1909 39.6657 33.0145 39.5442C32.8382 39.4228 32.823 39.1388 32.9806 38.9098L35.9556 34.5893Z" fill="#315CA7"/>
</g>
</g>
<defs>
<filter id="filter0_dd_1932_30502" x="0.96875" y="0" width="78" height="78" filterUnits="userSpaceOnUse" color-interpolation-filters="sRGB">
<feFlood flood-opacity="0" result="BackgroundImageFix"/>
<feColorMatrix in="SourceAlpha" type="matrix" values="0 0 0 0 0 0 0 0 0 0 0 0 0 0 0 0 0 0 127 0" result="hardAlpha"/>
<feOffset dy="1"/>
<feGaussianBlur stdDeviation="1.5"/>
<feColorMatrix type="matrix" values="0 0 0 0 0 0 0 0 0 0 0 0 0 0 0 0 0 0 0.05 0"/>
<feBlend mode="normal" in2="BackgroundImageFix" result="effect1_dropShadow_1932_30502"/>
<feColorMatrix in="SourceAlpha" type="matrix" values="0 0 0 0 0 0 0 0 0 0 0 0 0 0 0 0 0 0 127 0" result="hardAlpha"/>
<feMorphology radius="3" operator="dilate" in="SourceAlpha" result="effect2_dropShadow_1932_30502"/>
<feOffset dy="4"/>
<feGaussianBlur stdDeviation="4"/>
<feColorMatrix type="matrix" values="0 0 0 0 0 0 0 0 0 0 0 0 0 0 0 0 0 0 0.1 0"/>
<feBlend mode="normal" in2="effect1_dropShadow_1932_30502" result="effect2_dropShadow_1932_30502"/>
<feBlend mode="normal" in="SourceGraphic" in2="effect2_dropShadow_1932_30502" result="shape"/>
</filter>
<clipPath id="clip0_1932_30502">
<rect width="45.5405" height="32" fill="white" transform="translate(18.9688 19)"/>
</clipPath>
</defs>
</svg>
