<svg width="37" height="36" viewBox="0 0 37 36" fill="none" xmlns="http://www.w3.org/2000/svg">
<path d="M24.5813 2.10449C23.6549 3.29566 23.549 3.95743 24.1049 4.93684C24.3696 5.43978 24.396 5.75743 24.1843 6.20743C23.8666 6.89566 24.0519 7.21331 24.6078 7.00155C25.2431 6.76331 25.3755 5.57213 24.899 4.53978C24.449 3.61331 24.449 3.61331 25.296 2.55449C26.0637 1.62802 26.196 0.992722 25.6402 0.992722C25.5343 0.992722 25.0578 1.49566 24.5813 2.10449Z" fill="#315CA7"/>
<path d="M27.1751 2.74027C26.4604 3.58733 26.3546 3.85203 26.5134 4.67262C26.7251 5.91674 26.7781 6.84321 26.6193 7.34615C26.434 8.06086 27.281 7.76968 27.6516 7.00203C27.9428 6.39321 27.9428 6.15497 27.5987 5.44027C27.0428 4.35497 27.0693 4.19615 27.9693 3.13733C28.684 2.29027 28.7898 1.78733 28.234 1.78733C28.1281 1.78733 27.6516 2.21086 27.1751 2.74027Z" fill="#315CA7"/>
<path d="M29.8476 3.16346C28.7623 4.3017 28.577 5.09581 29.1329 6.15464C29.53 6.86934 29.5564 7.10758 29.2653 7.55758C28.8682 8.19287 29.08 8.53699 29.6623 8.32522C30.3241 8.06052 30.4829 6.8164 29.98 5.9164C29.53 5.14875 29.53 5.12228 30.3505 3.95758C31.4094 2.44875 31.0388 1.89287 29.8476 3.16346Z" fill="#315CA7"/>
<path d="M17.5668 4.98988C16.8786 5.38694 16.2697 6.73694 16.3756 7.68988L16.455 8.53694L14.3374 8.72223C8.61973 9.22517 4.49032 11.1311 4.72855 13.1428L4.80796 13.8311H18.9697H33.1315L33.2109 13.1428C33.4491 11.1311 29.3197 9.22517 23.6021 8.72223L21.4844 8.53694L21.5638 7.68988C21.6697 6.71047 21.0344 5.36047 20.3197 4.96341C19.658 4.61929 18.1756 4.64576 17.5668 4.98988ZM19.7903 6.57811C20.2668 7.05458 20.2933 7.18694 19.9491 7.68988C19.4991 8.37811 18.8109 8.56341 18.308 8.13988C17.7786 7.68988 17.805 6.63105 18.3874 6.31341C19.0227 5.91635 19.155 5.94282 19.7903 6.57811ZM24.6609 10.284C27.1491 10.6281 30.6697 11.6869 31.1462 12.2428C31.4374 12.5869 30.0609 12.6399 19.1286 12.6399C12.1138 12.6399 6.79326 12.534 6.79326 12.4016C6.79326 12.0046 8.93738 11.1311 11.0815 10.6546C14.8933 9.80753 19.9756 9.67517 24.6609 10.284Z" fill="#315CA7"/>
<path d="M4.86039 15.2078C4.7545 15.2872 4.67509 15.949 4.67509 16.6372V17.9078L2.90156 17.9872C1.31333 18.0666 1.10156 18.1196 1.10156 18.596C1.10156 19.0725 1.31333 19.1255 2.87509 19.2049L4.64862 19.2843L4.72803 25.8755C4.80745 32.096 4.83392 32.4931 5.36333 33.2078C5.68097 33.6049 6.31627 34.1872 6.81921 34.4784C7.69274 34.9813 8.19568 35.0078 19.1545 35.0078C30.3251 35.0078 30.5898 35.0078 31.331 34.4519C31.728 34.1608 32.3369 33.499 32.681 33.0225C33.2369 32.1755 33.2633 31.9637 33.2633 25.7166V19.2843L35.0633 19.2049C36.6251 19.1255 36.8369 19.0725 36.8369 18.596C36.8369 18.1196 36.6251 18.0666 35.0633 17.9872L33.2898 17.9078L33.2104 16.5313L33.131 15.1549L19.0751 15.0755C11.3457 15.049 4.9398 15.1019 4.86039 15.2078ZM31.9398 24.1019C31.9398 32.3608 31.9133 32.599 30.6163 33.2872C30.2722 33.4725 26.0898 33.5519 18.9692 33.5519C6.87215 33.5519 6.97803 33.5784 6.31627 32.0696C6.1045 31.6196 5.99862 28.999 5.99862 23.8902V16.346H18.9692H31.9398V24.1019Z" fill="#315CA7"/>
<path d="M7.45262 17.987C7.37321 18.1988 7.34674 20.3164 7.37321 22.6988C7.45262 26.8546 7.47909 27.0664 7.98203 27.0664C8.48497 27.0664 8.51144 26.8811 8.51144 22.4341C8.51144 18.2252 8.4585 17.8017 8.03497 17.7223C7.79674 17.6693 7.53203 17.8017 7.45262 17.987Z" fill="#315CA7"/>
</svg>
