<svg width="13" height="13" viewBox="0 0 13 13" fill="none" xmlns="http://www.w3.org/2000/svg">
<path d="M5 7.23145C3.83 7.23145 1.5 7.81645 1.5 8.98145V9.85645H8.5V8.98145C8.5 7.81645 6.17 7.23145 5 7.23145ZM2.67 8.85645C3.09 8.56645 4.105 8.23145 5 8.23145C5.895 8.23145 6.91 8.56645 7.33 8.85645H2.67ZM5 6.35645C5.965 6.35645 6.75 5.57145 6.75 4.60645C6.75 3.64145 5.965 2.85645 5 2.85645C4.035 2.85645 3.25 3.64145 3.25 4.60645C3.25 5.57145 4.035 6.35645 5 6.35645ZM5 3.85645C5.415 3.85645 5.75 4.19145 5.75 4.60645C5.75 5.02145 5.415 5.35645 5 5.35645C4.585 5.35645 4.25 5.02145 4.25 4.60645C4.25 4.19145 4.585 3.85645 5 3.85645ZM8.52 7.26145C9.1 7.68145 9.5 8.24145 9.5 8.98145V9.85645H11.5V8.98145C11.5 7.97145 9.75 7.39645 8.52 7.26145ZM8 6.35645C8.965 6.35645 9.75 5.57145 9.75 4.60645C9.75 3.64145 8.965 2.85645 8 2.85645C7.73 2.85645 7.48 2.92145 7.25 3.03145C7.565 3.47645 7.75 4.02145 7.75 4.60645C7.75 5.19145 7.565 5.73645 7.25 6.18145C7.48 6.29145 7.73 6.35645 8 6.35645Z" fill="#002E6A"/>
</svg>
