<svg width="25" height="24" viewBox="0 0 25 24" fill="none" xmlns="http://www.w3.org/2000/svg">
<g clip-path="url(#clip0_1945_357)">
<path d="M10.0617 2.51865L8.15183 4.19189L8.05042 3.60034C7.99971 3.27922 7.8476 2.94119 7.71239 2.85668C7.34056 2.62006 3.43633 2.67076 3.19971 2.90738C3.0814 3.0257 2.9969 3.44823 2.9969 3.85386C2.9969 4.44541 3.0645 4.61443 3.33493 4.68203C3.63915 4.76654 3.67295 4.91865 3.67295 6.42288V8.09612L1.89831 9.65105C0.799715 10.6144 0.123658 11.3074 0.157461 11.4764C0.208165 11.6961 0.495489 11.7637 1.61098 11.7975L2.9969 11.8482V15.0595C2.9969 18.0341 3.0138 18.2708 3.28422 18.2201C3.55464 18.1694 3.58845 17.8482 3.63915 14.9243L3.67295 11.6792L7.8476 8.02851C10.1293 6.03415 12.0561 4.39471 12.1237 4.39471C12.1913 4.39471 14.118 6.03415 16.4166 8.04541L20.5744 11.6792V17.0877V22.4792H17.9546H15.3349V18.0172C15.3349 14.1806 15.3011 13.5046 15.0645 13.2849C14.8448 13.0651 14.3546 13.0144 12.3096 13.0144C10.6025 13.0144 9.75746 13.082 9.62225 13.2172C9.47014 13.3694 9.41943 14.6539 9.41943 17.9496V22.4792H6.54619H3.68986L3.63915 21.0088C3.58845 19.7581 3.53774 19.5215 3.28422 19.4708C3.0307 19.4201 2.9969 19.5722 2.9969 21.0088C2.9969 22.3271 3.0476 22.6482 3.30112 22.8679C3.58845 23.1215 4.45042 23.1553 12.1575 23.1553C20.2025 23.1553 20.7096 23.1384 20.9631 22.851C21.2166 22.5806 21.2504 21.9215 21.2504 17.1891V11.8482L22.6363 11.7975C23.7518 11.7637 24.0392 11.6961 24.0899 11.4764C24.1237 11.3074 23.1603 10.3609 21.487 8.90739C20.0166 7.62288 18.7659 6.59189 18.6814 6.59189C18.6138 6.59189 18.5462 6.7271 18.5462 6.87922C18.5462 7.04823 19.4251 7.94401 20.5575 8.92429C21.6561 9.87077 22.687 10.8003 22.8561 10.9863C23.1603 11.3243 23.1434 11.3243 22.1293 11.3243H21.0983L16.7546 7.52147C14.3715 5.4257 12.2758 3.71865 12.1237 3.71865C11.9715 3.71865 9.87577 5.4257 7.49267 7.52147L3.14901 11.3243H2.13493C1.59408 11.3243 1.13774 11.2905 1.13774 11.2398C1.13774 11.0877 11.9377 1.69048 12.1237 1.69048C12.2251 1.69048 13.4082 2.65386 14.7603 3.83696C17.0082 5.81443 17.8701 6.40598 17.8701 5.93274C17.8701 5.72992 12.3603 0.845413 12.1237 0.845413C12.0392 0.845413 11.1096 1.60598 10.0617 2.51865ZM7.39126 3.80316V4.22569H5.53211H3.67295V3.80316V3.38062H5.53211H7.39126V3.80316ZM6.71521 5.08767C6.71521 5.40879 6.00535 6.15246 4.73774 7.14964L4.34901 7.45386V6.10175V4.73274H5.53211C6.6307 4.73274 6.71521 4.76654 6.71521 5.08767ZM14.6589 18.0849V22.4792H12.2927H9.92648V18.0849V13.6905H12.2927H14.6589V18.0849Z" fill="#3357A5"/>
</g>
<defs>
<clipPath id="clip0_1945_357">
<rect width="24" height="24" fill="white" transform="translate(0.125)"/>
</clipPath>
</defs>
</svg>
