<svg width="79" height="78" viewBox="0 0 79 78" fill="none" xmlns="http://www.w3.org/2000/svg">
<g filter="url(#filter0_dd_1930_30440)">
<rect x="11.9688" y="7" width="56" height="56" rx="28" fill="white"/>
<g clip-path="url(#clip0_1930_30440)">
<path d="M40.3287 36.8039C32.1162 36.8039 25.4375 31.876 25.4375 25.8164V25.2363H55.2198V25.8164C55.2198 31.876 48.5412 36.8039 40.3287 36.8039ZM27.0289 26.3964C27.4379 31.5506 33.2474 35.6485 40.3287 35.6485C47.4099 35.6485 53.2258 31.5459 53.6284 26.3964H27.0289Z" fill="#315CA7"/>
<path d="M39.9386 34.6298C34.8578 34.5072 30.4096 31.9984 28.9077 28.4145C28.8438 28.2636 28.9652 28.1033 29.1761 28.0608L29.9302 27.9099C30.1412 27.8675 30.3521 27.9571 30.416 28.1127C31.7261 31.1968 35.5544 33.3565 39.9322 33.4744C40.1495 33.4791 40.3221 33.6112 40.3221 33.7668V34.3468C40.3221 34.5072 40.1495 34.6345 39.9322 34.6298H39.9386Z" fill="#315CA7"/>
<path d="M55.5789 23.5762H24.3586C24.1433 23.5762 23.9688 23.705 23.9688 23.8638V24.4439C23.9688 24.6027 24.1433 24.7315 24.3586 24.7315H55.5789C55.7942 24.7315 55.9688 24.6027 55.9688 24.4439V23.8638C55.9688 23.705 55.7942 23.5762 55.5789 23.5762Z" fill="#315CA7"/>
<path d="M51.1523 51.0001C49.6343 51.0001 48.4023 49.8051 48.4023 48.3326C48.4023 46.86 49.6343 45.665 51.1523 45.665C52.6704 45.665 53.9023 46.86 53.9023 48.3326C53.9023 49.8051 52.6704 51.0001 51.1523 51.0001ZM51.1523 46.8177C50.289 46.8177 49.5906 47.4951 49.5906 48.3326C49.5906 49.17 50.289 49.8475 51.1523 49.8475C52.0157 49.8475 52.7141 49.17 52.7141 48.3326C52.7141 47.4951 52.0157 46.8177 51.1523 46.8177Z" fill="#315CA7"/>
<path d="M46.6086 35.3259L45.1328 35.7119L50.4758 46.8324L51.9516 46.4464L46.6086 35.3259Z" fill="#315CA7"/>
<path d="M27.9869 50.5267L27.2455 50.3334C27.041 50.2815 26.9323 50.1165 27.009 49.9656L34.052 35.3281L35.5283 35.7148L28.4854 50.3523C28.4151 50.5032 28.1914 50.5833 27.9869 50.5267Z" fill="#315CA7"/>
<path d="M49.451 47.7588H28.6289V48.9141H49.451V47.7588Z" fill="#315CA7"/>
<path d="M28.3092 22.8248C27.8719 22.3625 27.8098 22.1194 28.3961 21.46C28.7435 21.0714 28.3558 20.4047 28.0983 20.0787C28.0549 20.0216 28.089 19.9535 28.1821 19.924L28.5171 19.8172C28.6101 19.7877 28.7249 19.808 28.7683 19.865C29.0071 20.1634 29.6182 21.0511 29.0661 21.67C28.6256 22.1654 28.6411 22.2612 28.9637 22.5945C29.0165 22.6479 28.9854 22.7179 28.8955 22.7492L28.5667 22.8634C28.4767 22.8947 28.3589 22.8763 28.3092 22.8229V22.8248Z" fill="#315CA7"/>
<path d="M30.9694 22.0192C30.532 21.5569 30.47 21.3138 31.0562 20.6563C31.4036 20.2658 31.0159 19.601 30.7616 19.275C30.7181 19.2179 30.7523 19.1497 30.8453 19.1203L31.1803 19.0135C31.2734 18.984 31.3881 19.0042 31.4316 19.0613C31.6704 19.3597 32.2815 20.2474 31.7293 20.8663C31.2889 21.3617 31.3044 21.4575 31.627 21.7908C31.6797 21.8442 31.6487 21.9142 31.5587 21.9455L31.2299 22.0597C31.14 22.091 31.0221 22.0726 30.9725 22.0192H30.9694Z" fill="#315CA7"/>
<path d="M33.6335 22.8249C33.1961 22.3626 33.1341 22.1195 33.7203 21.462C34.0677 21.0734 33.68 20.4066 33.4225 20.0806C33.3791 20.0236 33.4132 19.9554 33.5063 19.9259L33.8413 19.8191C33.9343 19.7896 34.0491 19.8099 34.0925 19.867C34.3314 20.1654 34.9424 21.0531 34.3903 21.6719C33.9498 22.1674 33.9653 22.2631 34.2879 22.5965C34.3407 22.6499 34.3097 22.7199 34.2197 22.7512L33.8909 22.8654C33.801 22.8967 33.6831 22.8783 33.6335 22.8249Z" fill="#315CA7"/>
<path d="M37.3092 22.8248C36.8719 22.3625 36.8098 22.1194 37.3961 21.46C37.7435 21.0714 37.3558 20.4047 37.0983 20.0787C37.0549 20.0216 37.089 19.9535 37.1821 19.924L37.5171 19.8172C37.6101 19.7877 37.7249 19.808 37.7683 19.865C38.0071 20.1634 38.6182 21.0511 38.0661 21.67C37.6256 22.1654 37.6411 22.2612 37.9637 22.5945C38.0165 22.6479 37.9854 22.7179 37.8955 22.7492L37.5667 22.8634C37.4767 22.8947 37.3589 22.8763 37.3092 22.8229V22.8248Z" fill="#315CA7"/>
<path d="M39.9694 22.0192C39.532 21.5569 39.47 21.3138 40.0562 20.6563C40.4036 20.2658 40.0159 19.601 39.7616 19.275C39.7181 19.2179 39.7523 19.1497 39.8453 19.1203L40.1803 19.0135C40.2734 18.984 40.3881 19.0042 40.4316 19.0613C40.6704 19.3597 41.2815 20.2474 40.7293 20.8663C40.2889 21.3617 40.3044 21.4575 40.627 21.7908C40.6797 21.8442 40.6487 21.9142 40.5587 21.9455L40.2299 22.0597C40.14 22.091 40.0221 22.0726 39.9725 22.0192H39.9694Z" fill="#315CA7"/>
<path d="M42.6335 22.8249C42.1961 22.3626 42.1341 22.1195 42.7203 21.462C43.0677 21.0734 42.68 20.4066 42.4225 20.0806C42.3791 20.0236 42.4132 19.9554 42.5063 19.9259L42.8413 19.8191C42.9343 19.7896 43.0491 19.8099 43.0925 19.867C43.3314 20.1654 43.9424 21.0531 43.3903 21.6719C42.9498 22.1674 42.9653 22.2631 43.2879 22.5965C43.3407 22.6499 43.3097 22.7199 43.2197 22.7512L42.8909 22.8654C42.801 22.8967 42.6831 22.8783 42.6335 22.8249Z" fill="#315CA7"/>
<path d="M46.3092 22.8248C45.8719 22.3625 45.8098 22.1194 46.3961 21.46C46.7435 21.0714 46.3558 20.4047 46.0983 20.0787C46.0549 20.0216 46.089 19.9535 46.1821 19.924L46.5171 19.8172C46.6101 19.7877 46.7249 19.808 46.7683 19.865C47.0071 20.1634 47.6182 21.0511 47.0661 21.67C46.6256 22.1654 46.6411 22.2612 46.9637 22.5945C47.0165 22.6479 46.9854 22.7179 46.8955 22.7492L46.5667 22.8634C46.4767 22.8947 46.3589 22.8763 46.3092 22.8229V22.8248Z" fill="#315CA7"/>
<path d="M48.9694 22.0192C48.532 21.5569 48.47 21.3138 49.0562 20.6563C49.4036 20.2658 49.0159 19.601 48.7616 19.275C48.7181 19.2179 48.7523 19.1497 48.8453 19.1203L49.1803 19.0135C49.2734 18.984 49.3881 19.0042 49.4316 19.0613C49.6704 19.3597 50.2815 20.2474 49.7293 20.8663C49.2889 21.3617 49.3044 21.4575 49.627 21.7908C49.6797 21.8442 49.6487 21.9142 49.5587 21.9455L49.2299 22.0597C49.14 22.091 49.0221 22.0726 48.9725 22.0192H48.9694Z" fill="#315CA7"/>
<path d="M51.6335 22.8249C51.1961 22.3626 51.1341 22.1195 51.7203 21.462C52.0677 21.0734 51.68 20.4066 51.4225 20.0806C51.3791 20.0236 51.4132 19.9554 51.5063 19.9259L51.8413 19.8191C51.9343 19.7896 52.0491 19.8099 52.0925 19.867C52.3314 20.1654 52.9424 21.0531 52.3903 21.6719C51.9498 22.1674 51.9653 22.2631 52.2879 22.5965C52.3407 22.6499 52.3097 22.7199 52.2197 22.7512L51.8909 22.8654C51.801 22.8967 51.6831 22.8783 51.6335 22.8249Z" fill="#315CA7"/>
</g>
</g>
<defs>
<filter id="filter0_dd_1930_30440" x="0.96875" y="0" width="78" height="78" filterUnits="userSpaceOnUse" color-interpolation-filters="sRGB">
<feFlood flood-opacity="0" result="BackgroundImageFix"/>
<feColorMatrix in="SourceAlpha" type="matrix" values="0 0 0 0 0 0 0 0 0 0 0 0 0 0 0 0 0 0 127 0" result="hardAlpha"/>
<feOffset dy="1"/>
<feGaussianBlur stdDeviation="1.5"/>
<feColorMatrix type="matrix" values="0 0 0 0 0 0 0 0 0 0 0 0 0 0 0 0 0 0 0.05 0"/>
<feBlend mode="normal" in2="BackgroundImageFix" result="effect1_dropShadow_1930_30440"/>
<feColorMatrix in="SourceAlpha" type="matrix" values="0 0 0 0 0 0 0 0 0 0 0 0 0 0 0 0 0 0 127 0" result="hardAlpha"/>
<feMorphology radius="3" operator="dilate" in="SourceAlpha" result="effect2_dropShadow_1930_30440"/>
<feOffset dy="4"/>
<feGaussianBlur stdDeviation="4"/>
<feColorMatrix type="matrix" values="0 0 0 0 0 0 0 0 0 0 0 0 0 0 0 0 0 0 0.1 0"/>
<feBlend mode="normal" in2="effect1_dropShadow_1930_30440" result="effect2_dropShadow_1930_30440"/>
<feBlend mode="normal" in="SourceGraphic" in2="effect2_dropShadow_1930_30440" result="shape"/>
</filter>
<clipPath id="clip0_1930_30440">
<rect width="32" height="32" fill="white" transform="translate(23.9688 19)"/>
</clipPath>
</defs>
</svg>
