<svg width="12" height="13" viewBox="0 0 12 13" fill="none" xmlns="http://www.w3.org/2000/svg">
<path fill-rule="evenodd" clip-rule="evenodd" d="M5.995 1.35645C3.235 1.35645 1 3.59645 1 6.35645C1 9.11645 3.235 11.3564 5.995 11.3564C8.76 11.3564 11 9.11645 11 6.35645C11 3.59645 8.76 1.35645 5.995 1.35645ZM6 10.3564C3.79 10.3564 2 8.56645 2 6.35645C2 4.14645 3.79 2.35645 6 2.35645C8.21 2.35645 10 4.14645 10 6.35645C10 8.56645 8.21 10.3564 6 10.3564ZM5.5 6.89145L8.245 8.53645L8.755 7.67645L6.5 6.32145V3.56645H5.5V6.89145Z" fill="#002E6A"/>
</svg>
