<svg width="33" height="32" viewBox="0 0 33 32" fill="none" xmlns="http://www.w3.org/2000/svg">
<path d="M30.4507 32H3.48682C2.09931 32 0.96875 30.9122 0.96875 29.5773V2.42274C0.96875 1.08776 2.09931 0 3.48682 0H30.4507C31.8382 0 32.9688 1.08776 32.9688 2.42274V29.5773C32.9688 30.9122 31.8382 32 30.4507 32ZM3.48682 1.21137C2.79306 1.21137 2.22778 1.75525 2.22778 2.42274V29.5773C2.22778 30.2447 2.79306 30.7886 3.48682 30.7886H30.4507C31.1444 30.7886 31.7097 30.2447 31.7097 29.5773V2.42274C31.7097 1.75525 31.1444 1.21137 30.4507 1.21137H3.48682Z" fill="#315CA7"/>
<path d="M32.3425 7.95508H1.60156V9.16645H32.3425V7.95508Z" fill="#315CA7"/>
<path d="M27.5975 26.8131H6.33783C5.82908 26.8131 5.41797 26.4176 5.41797 25.9281V14.5511C5.41797 14.0616 5.82908 13.666 6.33783 13.666H27.6027C28.1114 13.666 28.5225 14.0616 28.5225 14.5511V25.9281C28.5225 26.4176 28.1114 26.8131 27.6027 26.8131H27.5975ZM6.677 25.6017H27.2583V14.8823H6.677V25.6017Z" fill="#315CA7"/>
<path d="M27.7383 12.717H6.20112C5.69236 12.717 5.28125 12.3215 5.28125 11.832V10.1904H6.54028V11.5007H27.3888V10.1904H28.6479V11.832C28.6479 12.3215 28.2368 12.717 27.728 12.717H27.7383Z" fill="#315CA7"/>
<path d="M6.04673 6.63085C4.92131 6.63085 4.01172 5.75075 4.01172 4.67288C4.01172 3.595 4.92645 2.70996 6.04673 2.70996C7.16701 2.70996 8.08174 3.59006 8.08174 4.67288C8.08174 5.7557 7.16701 6.63085 6.04673 6.63085ZM6.04673 3.92133C5.6202 3.92133 5.27075 4.25755 5.27075 4.66793C5.27075 5.07832 5.6202 5.41453 6.04673 5.41453C6.47326 5.41453 6.8227 5.07832 6.8227 4.66793C6.8227 4.25755 6.47326 3.92133 6.04673 3.92133Z" fill="#315CA7"/>
<path d="M12.7967 6.63085C11.6713 6.63085 10.7617 5.75075 10.7617 4.67288C10.7617 3.595 11.6764 2.70996 12.7967 2.70996C13.917 2.70996 14.8317 3.59006 14.8317 4.67288C14.8317 5.7557 13.917 6.63085 12.7967 6.63085ZM12.7967 3.92133C12.3702 3.92133 12.0208 4.25755 12.0208 4.66793C12.0208 5.07832 12.3702 5.41453 12.7967 5.41453C13.2233 5.41453 13.5727 5.07832 13.5727 4.66793C13.5727 4.25755 13.2233 3.92133 12.7967 3.92133Z" fill="#315CA7"/>
<path d="M17.8944 6.63085C16.769 6.63085 15.8594 5.75075 15.8594 4.67288C15.8594 3.595 16.7741 2.70996 17.8944 2.70996C19.0147 2.70996 19.9345 3.59006 19.9345 4.67288C19.9345 5.7557 19.0198 6.63085 17.8944 6.63085ZM17.8944 3.92133C17.4679 3.92133 17.1184 4.25755 17.1184 4.66793C17.1184 5.07832 17.4679 5.41453 17.8944 5.41453C18.3209 5.41453 18.6704 5.07832 18.6704 4.66793C18.6704 4.25755 18.3209 3.92133 17.8944 3.92133Z" fill="#315CA7"/>
<path d="M22.9959 6.63085C21.8705 6.63085 20.9609 5.75075 20.9609 4.67288C20.9609 3.595 21.8757 2.70996 22.9959 2.70996C24.1162 2.70996 25.031 3.59006 25.031 4.67288C25.031 5.7557 24.1162 6.63085 22.9959 6.63085ZM22.9959 3.92133C22.5694 3.92133 22.22 4.25755 22.22 4.66793C22.22 5.07832 22.5694 5.41453 22.9959 5.41453C23.4225 5.41453 23.7719 5.07832 23.7719 4.66793C23.7719 4.25755 23.4225 3.92133 22.9959 3.92133Z" fill="#315CA7"/>
<path d="M28.0975 6.63085C26.9721 6.63085 26.0625 5.75075 26.0625 4.67288C26.0625 3.595 26.9772 2.70996 28.0975 2.70996C29.2178 2.70996 30.1377 3.59006 30.1377 4.67288C30.1377 5.7557 29.2229 6.63085 28.0975 6.63085ZM28.0975 3.92133C27.671 3.92133 27.3215 4.25755 27.3215 4.66793C27.3215 5.07832 27.671 5.41453 28.0975 5.41453C28.524 5.41453 28.8735 5.07832 28.8735 4.66793C28.8735 4.25755 28.524 3.92133 28.0975 3.92133Z" fill="#315CA7"/>
<path d="M27.8872 23.1543H6.04688V24.3657H27.8872V23.1543Z" fill="#315CA7"/>
<path d="M9.33325 23.7627H8.07422V26.2052H9.33325V23.7627Z" fill="#315CA7"/>
<path d="M12.0208 23.7627H10.7617V26.2052H12.0208V23.7627Z" fill="#315CA7"/>
<path d="M14.7043 23.7627H13.4453V26.2052H14.7043V23.7627Z" fill="#315CA7"/>
<path d="M17.3918 23.7627H16.1328V26.2052H17.3918V23.7627Z" fill="#315CA7"/>
<path d="M20.0793 23.7627H18.8203V26.2052H20.0793V23.7627Z" fill="#315CA7"/>
<path d="M22.7668 23.7627H21.5078V26.2052H22.7668V23.7627Z" fill="#315CA7"/>
<path d="M25.4504 23.7627H24.1914V26.2052H25.4504V23.7627Z" fill="#315CA7"/>
</svg>
